<svg xmlns="http://www.w3.org/2000/svg" xmlns:xlink="http://www.w3.org/1999/xlink" width="1920" zoomAndPan="magnify" viewBox="0 0 1440 587.999999" height="784" preserveAspectRatio="xMidYMid meet" version="1.0"><defs><clipPath id="9be77e4b1b"><path d="M 850 175 L 1342 175 L 1342 565.050781 L 850 565.050781 Z M 850 175 " clip-rule="nonzero"/></clipPath><clipPath id="330b86eb3a"><path d="M 811 58.800781 L 1325 58.800781 L 1325 559 L 811 559 Z M 811 58.800781 " clip-rule="nonzero"/></clipPath></defs><rect x="-144" width="1728" fill="#ffffff" y="-58.8" height="705.599999" fill-opacity="1"/><rect x="-144" width="1728" fill="#ffffff" y="-58.8" height="705.599999" fill-opacity="1"/><path fill="#c45827" d="M 947.550781 302.082031 C 921.367188 299.207031 921.367188 299.207031 921.367188 299.207031 L 927.75 311.984375 L 892.953125 312.886719 L 849.277344 405.09375 C 849.277344 405.09375 808.664062 391.15625 805.792969 360.503906 C 802.917969 329.851562 827.824219 280.050781 827.824219 280.050781 C 827.824219 280.050781 821.757812 247.800781 818.882812 229.921875 C 816.007812 212.046875 828.457031 192.570312 845.699219 191.925781 C 862.945312 191.292969 862.945312 191.292969 862.945312 191.292969 L 896.144531 254.828125 L 899.980469 252.589844 L 900.613281 194.484375 C 900.613281 194.484375 926.800781 193.851562 939.246094 213.957031 C 951.691406 234.078125 959.363281 245.878906 966.378906 261.527344 C 973.417969 277.175781 973.734375 304.957031 947.550781 302.082031 Z M 998.828125 491.003906 C 998.828125 491.003906 987.15625 487.894531 981.324219 495.671875 L 966.15625 481.277344 C 966.15625 481.277344 959.152344 491.390625 968.105469 502.664062 C 977.042969 513.9375 994.933594 529.890625 999.601562 534.949219 C 1004.273438 540.003906 1008.941406 538.054688 1007.378906 528.730469 C 1005.832031 519.390625 998.828125 491.003906 998.828125 491.003906 Z M 1110.453125 553.226562 C 1103.0625 549.730469 1071.175781 533.773438 1071.175781 533.773438 C 1071.175781 533.773438 1065.34375 537.269531 1065.730469 545.046875 L 1037.730469 545.046875 C 1037.730469 545.046875 1038.890625 564.5 1051.726562 564.5 C 1064.558594 564.5 1103.449219 564.5 1110.453125 564.5 C 1117.441406 564.511719 1117.84375 556.730469 1110.453125 553.226562 Z M 1110.453125 553.226562 " fill-opacity="1" fill-rule="nonzero"/><path fill="#f2bd42" d="M 868.214844 403.746094 C 906.9375 403.746094 973.3125 403.746094 973.3125 403.746094 L 969.792969 416.824219 C 969.792969 416.824219 963.257812 429.90625 940.628906 429.90625 C 918 429.90625 856.644531 429.90625 836.023438 429.90625 C 815.398438 429.90625 809.371094 414.820312 802.332031 400.238281 C 795.292969 385.65625 781.707031 315.75 779.195312 301.671875 C 776.6875 287.59375 787.242188 281.550781 797.296875 281.550781 C 807.351562 281.550781 827.824219 281.550781 827.824219 281.550781 C 827.824219 281.550781 813.382812 315.75 807.351562 343.410156 C 801.320312 371.0625 829.488281 403.746094 868.214844 403.746094 Z M 1332.300781 279.523438 C 1332.300781 279.523438 1321.238281 324.78125 1314.199219 350.929688 C 1307.160156 377.082031 1280.988281 395.6875 1259.859375 395.6875 C 1238.746094 395.6875 1231.210938 395.179688 1231.210938 395.179688 L 1224.867188 430.234375 C 1224.867188 430.234375 1254.3125 430.234375 1285.492188 430.234375 C 1316.675781 430.234375 1332.804688 404.742188 1339.84375 373.5625 C 1346.882812 342.378906 1350.90625 315.222656 1352.417969 299.136719 C 1353.921875 283.054688 1339.84375 279.523438 1332.300781 279.523438 Z M 1332.300781 279.523438 " fill-opacity="1" fill-rule="nonzero"/><g clip-path="url(#9be77e4b1b)"><path fill="#52694e" d="M 1026.925781 389 L 1054.539062 497.875 L 1009.925781 497.875 L 998.242188 475.035156 L 1000.625 460.78125 L 964.269531 448.664062 L 973.300781 403.746094 C 973.300781 403.746094 883.910156 403.746094 868.203125 403.746094 C 852.492188 403.746094 850.535156 400.976562 850.535156 400.976562 L 892.953125 312.875 L 927.75 311.972656 C 927.75 311.972656 960 311.972656 990.265625 311.972656 C 1020.542969 311.972656 1041.25 332.699219 1034.351562 359.25 C 1027.453125 385.808594 1026.925781 389 1026.925781 389 Z M 1313.894531 181.015625 C 1299.207031 177.167969 1277.527344 175.773438 1277.527344 175.773438 C 1277.527344 175.773438 1259.695312 188.359375 1245.007812 181.015625 C 1245.007812 181.015625 1221.230469 185.214844 1214.929688 198.496094 C 1208.628906 211.785156 1189.753906 253.398438 1189.753906 253.398438 L 1140.800781 196.394531 L 1115.273438 219.128906 C 1115.273438 219.128906 1158.632812 275.089844 1169.824219 289.777344 C 1181.015625 304.464844 1206.894531 302.011719 1206.894531 302.011719 L 1204.441406 316.699219 L 1210.742188 346.074219 C 1210.742188 346.074219 1267.742188 338.730469 1288.730469 336.632812 C 1309.71875 334.53125 1320.558594 324.734375 1324.054688 312.851562 C 1327.550781 300.957031 1340.136719 249.550781 1341.191406 224.023438 C 1342.226562 198.507812 1328.582031 184.863281 1313.894531 181.015625 Z M 1151.40625 549.554688 C 1151.40625 549.554688 1144.4375 550.515625 1144.4375 556.074219 C 1144.4375 561.636719 1146.371094 565.261719 1151.207031 565.261719 C 1156.039062 565.261719 1205.34375 565.261719 1212.992188 565.261719 C 1220.644531 565.261719 1217.722656 549.636719 1217.722656 549.636719 Z M 1151.40625 549.554688 " fill-opacity="1" fill-rule="nonzero"/></g><path fill="#de9c72" d="M 920.125 137.421875 C 922.210938 149.105469 920.125 169.988281 911.769531 176.664062 C 903.417969 183.339844 896.53125 183.972656 896.53125 183.972656 L 896.824219 187.773438 L 891.042969 196.640625 L 887.570312 209.171875 L 885.058594 197.804688 L 870.640625 188.148438 C 870.640625 188.148438 869.808594 181.472656 864.800781 179.796875 C 859.789062 178.117188 844.011719 153.789062 847.765625 137.503906 C 851.519531 121.222656 863.964844 103.402344 888.800781 107.367188 C 913.648438 111.332031 918.035156 125.738281 920.125 137.421875 Z M 922.058594 247.320312 L 936.171875 261.269531 L 929.683594 245.867188 C 929.683594 245.867188 926.105469 244.894531 922.058594 247.320312 Z M 872.4375 254.289062 C 863.519531 255.910156 858.710938 258.277344 856.761719 260.390625 C 854.816406 262.5 851.203125 273.914062 851.039062 277.808594 C 850.875 281.707031 850.394531 290.128906 854.605469 290.128906 C 858.816406 290.128906 870.007812 283.476562 874.21875 280.882812 C 878.429688 278.292969 880.214844 265.960938 880.214844 265.960938 L 891.242188 258.5 C 891.253906 258.511719 881.363281 252.671875 872.4375 254.289062 Z M 1063.773438 527.0625 C 1061.894531 522.042969 1054.539062 497.875 1054.539062 497.875 L 1024.085938 497.59375 C 1024.085938 497.59375 1033.882812 521.632812 1035.757812 529.996094 C 1037.636719 538.359375 1037.71875 545.070312 1037.71875 545.070312 C 1037.71875 545.070312 1058.339844 545.070312 1065.71875 545.070312 C 1066.414062 539.242188 1071.164062 533.796875 1071.164062 533.796875 C 1071.164062 533.796875 1065.660156 532.074219 1063.773438 527.0625 Z M 1000.636719 460.78125 L 972.855469 451.609375 C 972.855469 451.609375 972.023438 457.671875 970.34375 466.449219 C 968.667969 475.222656 966.167969 481.289062 966.167969 481.289062 L 981.335938 495.683594 C 989.1875 488.539062 998.839844 491.015625 998.839844 491.015625 C 998.839844 491.015625 997.527344 481.921875 998.253906 475.046875 C 998.980469 468.160156 1000.636719 460.78125 1000.636719 460.78125 Z M 1171.582031 490.753906 L 1161.410156 493.03125 C 1161.410156 493.03125 1164.964844 501.324219 1167.101562 511.039062 C 1169.238281 520.753906 1167.335938 528.332031 1166.152344 531.652344 L 1168.285156 532.835938 C 1168.285156 532.835938 1172.074219 529.28125 1173.261719 524.542969 C 1173.261719 524.542969 1191.984375 520.035156 1199.082031 534.019531 L 1212.347656 534.019531 L 1212.816406 511.753906 L 1173.285156 511.753906 Z M 1188.734375 339.785156 C 1205.933594 338.015625 1208.136719 335.351562 1208.136719 335.351562 L 1204.441406 316.699219 C 1204.441406 316.699219 1196.207031 317.589844 1186.539062 318.117188 C 1176.875 318.648438 1164.824219 321.261719 1161.695312 323.878906 C 1158.550781 326.496094 1150.441406 333.816406 1151.230469 340.089844 C 1157.164062 339.433594 1157.585938 338.777344 1157.585938 338.777344 C 1157.585938 338.777344 1171.535156 341.558594 1188.734375 339.785156 Z M 1105.804688 181.402344 C 1097.957031 180.78125 1094.027344 180.066406 1090.003906 179.539062 C 1085.980469 179.023438 1084.738281 182.53125 1086.695312 183.984375 C 1088.65625 185.425781 1093.921875 188.113281 1093.921875 188.113281 L 1081.734375 191.621094 C 1081.734375 191.621094 1073.050781 187.492188 1070.472656 186.035156 C 1067.890625 184.59375 1063.140625 187.585938 1067.058594 191.105469 C 1070.988281 194.613281 1077.488281 198.027344 1082.144531 200.5 C 1086.789062 202.976562 1096.503906 203.1875 1105.382812 203.492188 C 1114.265625 203.796875 1117.371094 203.703125 1117.371094 203.703125 L 1124.1875 211.140625 L 1140.800781 196.394531 C 1140.800781 196.394531 1132.976562 189.238281 1127.390625 186.035156 C 1121.820312 182.847656 1113.652344 182.023438 1105.804688 181.402344 Z M 1280.765625 108.539062 C 1277.222656 79.988281 1215.925781 75.796875 1209.476562 111.203125 C 1203.023438 146.609375 1209.476562 154.585938 1218.179688 163.945312 C 1226.882812 173.296875 1243.015625 171.042969 1243.015625 171.042969 L 1244.996094 181.027344 C 1262.464844 188.664062 1277.515625 175.785156 1277.515625 175.785156 L 1270.125 161.449219 C 1270.125 161.449219 1284.308594 137.082031 1280.765625 108.539062 Z M 1280.765625 108.539062 " fill-opacity="1" fill-rule="nonzero"/><g clip-path="url(#330b86eb3a)"><path fill="#000000" d="M 963.199219 551.898438 C 963.953125 555.230469 961.417969 558.398438 958.003906 558.398438 C 955.597656 558.398438 953.488281 556.789062 952.867188 554.46875 L 918.597656 429.789062 L 935.585938 429.542969 Z M 1289.527344 429.542969 L 1272.542969 429.789062 L 1306.808594 554.46875 C 1307.441406 556.789062 1309.542969 558.398438 1311.945312 558.398438 C 1315.359375 558.398438 1317.894531 555.230469 1317.144531 551.898438 Z M 811.457031 551.898438 C 810.707031 555.230469 813.242188 558.398438 816.65625 558.398438 C 819.058594 558.398438 821.171875 556.789062 821.792969 554.46875 L 856.058594 429.789062 L 839.074219 429.542969 Z M 1324.042969 312.851562 C 1324.042969 312.851562 1318.445312 331.597656 1296.589844 335.011719 C 1274.734375 338.425781 1210.742188 346.074219 1210.742188 346.074219 L 1208.136719 335.351562 C 1208.136719 335.351562 1184.230469 343.210938 1157.585938 338.765625 C 1157.585938 338.765625 1129.925781 342.859375 1123.097656 361.3125 C 1116.269531 379.753906 1121.386719 396.835938 1125.152344 412.882812 C 1128.90625 428.933594 1151.453125 496.222656 1151.453125 496.222656 L 1171.605469 490.753906 L 1173.320312 511.929688 L 1175.089844 511.929688 C 1175.230469 514.652344 1175.300781 520.117188 1173.882812 524.4375 C 1173.683594 524.472656 1173.484375 524.507812 1173.285156 524.542969 C 1173.285156 524.542969 1171.851562 528.214844 1169.496094 531.511719 L 1166.175781 531.640625 C 1166.175781 531.640625 1159.734375 542.832031 1150.902344 549.625 L 1217.746094 549.625 C 1217.746094 549.625 1216.984375 534.007812 1212.371094 534.007812 C 1207.773438 534.007812 1199.105469 534.007812 1199.105469 534.007812 C 1199.105469 534.007812 1195.28125 521.304688 1175.652344 524.132812 C 1176.898438 519.730469 1176.863281 514.628906 1176.710938 511.917969 L 1218.390625 511.917969 C 1218.390625 511.917969 1228.292969 432.347656 1232.058594 396.484375 C 1232.058594 396.484375 1236.84375 396.484375 1257.679688 396.484375 C 1278.488281 396.496094 1314.609375 387.695312 1324.042969 312.851562 Z M 1237.898438 132.929688 C 1239.027344 132.929688 1239.941406 132.015625 1239.941406 130.886719 C 1239.941406 129.761719 1239.027344 128.847656 1237.898438 128.847656 C 1236.773438 128.847656 1235.859375 129.761719 1235.859375 130.886719 C 1235.859375 132.015625 1236.773438 132.929688 1237.898438 132.929688 Z M 1213.078125 134.855469 C 1214.203125 134.855469 1215.117188 133.9375 1215.117188 132.8125 C 1215.117188 131.6875 1214.203125 130.769531 1213.078125 130.769531 C 1211.949219 130.769531 1211.035156 131.6875 1211.035156 132.8125 C 1211.035156 133.9375 1211.949219 134.855469 1213.078125 134.855469 Z M 1153.09375 334.707031 C 1152.660156 334.8125 1152.402344 335.257812 1152.507812 335.691406 C 1152.601562 336.054688 1152.929688 336.300781 1153.292969 336.300781 C 1153.363281 336.300781 1153.421875 336.289062 1153.492188 336.277344 C 1153.527344 336.265625 1157.457031 335.304688 1161.152344 335.304688 C 1161.601562 335.304688 1161.964844 334.941406 1161.964844 334.496094 C 1161.964844 334.050781 1161.601562 333.6875 1161.152344 333.6875 C 1157.246094 333.675781 1153.269531 334.660156 1153.09375 334.707031 Z M 1164.742188 330.777344 C 1165.164062 330.824219 1165.589844 330.507812 1165.636719 330.0625 C 1165.683594 329.617188 1165.367188 329.214844 1164.917969 329.167969 C 1160.308594 328.664062 1155.945312 329.816406 1155.757812 329.863281 C 1155.324219 329.980469 1155.066406 330.425781 1155.183594 330.847656 C 1155.277344 331.210938 1155.605469 331.445312 1155.96875 331.445312 C 1156.039062 331.445312 1156.109375 331.433594 1156.179688 331.421875 C 1156.214844 331.410156 1160.425781 330.296875 1164.742188 330.777344 Z M 1169.894531 326.589844 C 1169.929688 326.589844 1169.976562 326.601562 1170.011719 326.601562 C 1170.410156 326.601562 1170.75 326.308594 1170.808594 325.910156 C 1170.878906 325.460938 1170.574219 325.050781 1170.128906 324.992188 C 1165.542969 324.3125 1161.363281 324.96875 1161.1875 324.992188 C 1160.742188 325.0625 1160.449219 325.472656 1160.519531 325.921875 C 1160.589844 326.367188 1160.976562 326.671875 1161.445312 326.589844 C 1161.480469 326.589844 1165.566406 325.957031 1169.894531 326.589844 Z M 1095.578125 190.882812 C 1086.414062 191.339844 1081.863281 190.835938 1081.828125 190.824219 C 1081.359375 190.765625 1080.984375 191.09375 1080.9375 191.539062 C 1080.890625 191.984375 1081.207031 192.382812 1081.652344 192.429688 C 1081.839844 192.453125 1086.355469 192.957031 1095.671875 192.488281 C 1105.242188 192.007812 1111.390625 191.9375 1115.90625 195 C 1116.046875 195.09375 1116.199219 195.140625 1116.363281 195.140625 C 1116.621094 195.140625 1116.878906 195.011719 1117.03125 194.789062 C 1117.277344 194.414062 1117.183594 193.921875 1116.820312 193.664062 C 1111.871094 190.332031 1105.5 190.390625 1095.578125 190.882812 Z M 1219.585938 125.328125 C 1219.65625 125.375 1219.726562 125.46875 1219.796875 125.527344 C 1221.898438 124.449219 1224.023438 125.082031 1225.148438 125.574219 C 1225.21875 125.492188 1225.277344 125.386719 1225.359375 125.316406 C 1234.449219 117.210938 1245.769531 122.242188 1248.972656 124.402344 L 1255.285156 122.382812 C 1255.34375 121.84375 1255.425781 121.292969 1255.554688 120.695312 C 1255.554688 120.695312 1242.308594 120.4375 1245.371094 105.160156 C 1245.371094 105.160156 1230.34375 115.730469 1219.398438 104.902344 C 1219.398438 104.902344 1216.984375 109.234375 1210.484375 108.726562 L 1207.808594 121.84375 C 1207.808594 121.84375 1200.546875 117.515625 1203.984375 107.964844 C 1203.984375 107.964844 1197.742188 92.5625 1205.636719 85.6875 C 1213.535156 78.8125 1223.714844 83.011719 1223.714844 83.011719 C 1223.714844 83.011719 1227.917969 74.988281 1238.613281 75.878906 C 1249.3125 76.773438 1253.644531 83.140625 1253.644531 83.140625 C 1253.644531 83.140625 1263.449219 75.246094 1273.503906 81.488281 C 1283.558594 87.730469 1281.902344 98.039062 1281.902344 98.039062 C 1281.902344 98.039062 1291.839844 99.191406 1294.386719 112.550781 C 1296.929688 125.925781 1287.125 133.046875 1287.125 133.046875 C 1287.125 133.046875 1288.90625 146.925781 1283.054688 154.691406 C 1277.199219 162.457031 1270.125 161.425781 1270.125 161.425781 C 1270.125 161.425781 1263.578125 155.195312 1267.273438 143.734375 C 1267.273438 143.734375 1278.21875 140.554688 1277.585938 128.460938 C 1276.953125 116.363281 1267.144531 120.058594 1267.144531 120.058594 L 1261.539062 133.304688 C 1261.539062 133.304688 1255.273438 131.441406 1255.191406 124.109375 L 1250.113281 125.726562 C 1250.933594 127.511719 1251.167969 130.792969 1250.171875 133.773438 C 1249.195312 136.683594 1246.300781 141.550781 1237.757812 141.550781 C 1228.925781 141.550781 1225.804688 136.824219 1224.726562 133.996094 C 1223.75 131.453125 1223.796875 128.777344 1224.398438 126.980469 C 1223.5625 126.628906 1222.109375 126.242188 1220.679688 126.910156 C 1221.3125 128.683594 1221.441406 131.476562 1220.914062 134.160156 L 1221.675781 134.347656 C 1221.675781 134.347656 1220.550781 138.972656 1219.925781 141.644531 C 1219.84375 142.019531 1219.773438 142.515625 1219.925781 142.738281 C 1220.21875 143.148438 1221.558594 143.265625 1223.09375 143.40625 C 1223.515625 143.441406 1223.976562 143.488281 1224.46875 143.535156 C 1224.914062 143.582031 1225.230469 143.980469 1225.183594 144.425781 C 1225.136719 144.835938 1224.785156 145.152344 1224.386719 145.152344 C 1224.363281 145.152344 1224.328125 145.152344 1224.304688 145.152344 C 1223.820312 145.105469 1223.375 145.058594 1222.953125 145.023438 C 1220.785156 144.824219 1219.351562 144.695312 1218.613281 143.6875 C 1218.050781 142.914062 1218.191406 141.949219 1218.34375 141.28125 C 1218.484375 140.695312 1218.636719 140.015625 1218.800781 139.3125 C 1217.265625 141.433594 1215.09375 142.691406 1212.394531 142.925781 C 1212.089844 142.949219 1211.785156 142.960938 1211.492188 142.960938 C 1207.925781 142.960938 1204.96875 141.023438 1203.09375 137.433594 C 1201.167969 133.738281 1200.734375 128.601562 1202.203125 126.839844 C 1207.375 120.707031 1217.253906 123.875 1219.585938 125.328125 Z M 1226.4375 126.523438 C 1226.402344 126.558594 1226.355469 126.628906 1226.320312 126.675781 C 1226.320312 126.816406 1226.296875 126.96875 1226.203125 127.097656 C 1226.144531 127.191406 1226.050781 127.261719 1225.96875 127.320312 C 1225.488281 128.566406 1225.277344 130.933594 1226.226562 133.445312 C 1227.152344 135.875 1229.886719 139.957031 1237.746094 139.957031 C 1244.902344 139.957031 1247.613281 136.332031 1248.632812 133.28125 C 1249.84375 129.65625 1248.890625 126.335938 1248.363281 125.949219 C 1246.078125 124.226562 1234.964844 118.921875 1226.4375 126.523438 Z M 1203.445312 127.921875 C 1202.683594 128.824219 1202.625 133.070312 1204.535156 136.71875 C 1205.746094 139.03125 1208.042969 141.714844 1212.265625 141.339844 C 1216.972656 140.929688 1218.636719 136.871094 1219.210938 134.488281 C 1220.148438 130.570312 1219.328125 127.0625 1218.753906 126.699219 C 1217.605469 125.984375 1214.378906 124.777344 1210.976562 124.777344 C 1208.253906 124.777344 1205.425781 125.539062 1203.445312 127.921875 Z M 1231.414062 155.03125 C 1230.988281 155.183594 1230.765625 155.640625 1230.917969 156.0625 C 1231.035156 156.390625 1231.351562 156.601562 1231.683594 156.601562 C 1231.777344 156.601562 1231.859375 156.589844 1231.953125 156.554688 C 1232.128906 156.496094 1236.375 154.972656 1238.355469 151.453125 C 1239.765625 148.941406 1238.898438 147.734375 1238.449219 147.324219 C 1237.40625 146.375 1235.507812 146.644531 1233.488281 148.027344 C 1230.425781 150.140625 1226.71875 150.457031 1226.671875 150.457031 C 1226.226562 150.492188 1225.898438 150.878906 1225.933594 151.324219 C 1225.96875 151.769531 1226.390625 152.097656 1226.800781 152.0625 C 1226.964844 152.050781 1230.964844 151.710938 1234.402344 149.351562 C 1236.011719 148.25 1237.066406 148.25 1237.359375 148.519531 C 1237.617188 148.753906 1237.59375 149.519531 1236.949219 150.65625 C 1235.273438 153.636719 1231.460938 155.007812 1231.414062 155.03125 Z M 1229.945312 119.765625 C 1229.980469 119.730469 1234.085938 116.316406 1241.875 119.496094 C 1242.285156 119.660156 1242.757812 119.472656 1242.933594 119.050781 C 1243.097656 118.640625 1242.898438 118.171875 1242.488281 117.996094 C 1233.792969 114.453125 1229.089844 118.371094 1228.890625 118.546875 C 1228.550781 118.839844 1228.515625 119.34375 1228.808594 119.683594 C 1228.972656 119.871094 1229.195312 119.964844 1229.417969 119.964844 C 1229.605469 119.964844 1229.792969 119.894531 1229.945312 119.765625 Z M 1210.085938 119.765625 C 1210.25 119.625 1214.285156 116.339844 1222.015625 119.484375 C 1222.425781 119.648438 1222.894531 119.460938 1223.070312 119.039062 C 1223.234375 118.628906 1223.035156 118.160156 1222.625 117.984375 C 1213.933594 114.441406 1209.226562 118.359375 1209.027344 118.535156 C 1208.6875 118.828125 1208.652344 119.332031 1208.945312 119.671875 C 1209.109375 119.859375 1209.335938 119.953125 1209.570312 119.953125 C 1209.746094 119.964844 1209.933594 119.894531 1210.085938 119.765625 Z M 1207.773438 295.875 C 1208.171875 295.875 1208.523438 295.582031 1208.570312 295.171875 L 1216.511719 235.824219 C 1217.769531 225.335938 1221.019531 218.214844 1223.65625 215.058594 C 1223.9375 214.71875 1223.890625 214.203125 1223.550781 213.921875 C 1223.210938 213.640625 1222.695312 213.6875 1222.414062 214.027344 C 1221.066406 215.648438 1216.535156 221.992188 1214.90625 235.625 L 1206.964844 294.960938 C 1206.90625 295.40625 1207.210938 295.804688 1207.65625 295.863281 C 1207.703125 295.863281 1207.738281 295.875 1207.773438 295.875 Z M 1293.550781 211.820312 C 1293.445312 212.199219 1291.078125 221.160156 1291.605469 230.289062 C 1291.851562 234.605469 1290.386719 238.347656 1288.824219 242.300781 C 1287.21875 246.394531 1285.550781 250.628906 1285.820312 255.683594 C 1286.066406 260.167969 1284.507812 265.679688 1282.84375 271.523438 C 1281.082031 277.714844 1279.101562 284.71875 1278.992188 291.652344 L 1204.195312 315.949219 C 1203.773438 316.089844 1203.539062 316.546875 1203.679688 316.96875 C 1203.785156 317.308594 1204.101562 317.53125 1204.453125 317.53125 C 1204.535156 317.53125 1204.617188 317.519531 1204.699219 317.496094 L 1280.050781 293.027344 C 1280.378906 292.921875 1280.613281 292.605469 1280.613281 292.25 C 1280.613281 285.355469 1282.535156 278.550781 1284.402344 271.980469 C 1286.089844 266.007812 1287.699219 260.367188 1287.441406 255.613281 C 1287.183594 250.921875 1288.789062 246.851562 1290.339844 242.910156 C 1291.886719 238.96875 1293.492188 234.898438 1293.222656 230.21875 C 1292.707031 221.359375 1295.101562 212.351562 1295.125 212.269531 C 1295.242188 211.835938 1294.984375 211.386719 1294.550781 211.269531 C 1294.117188 211.140625 1293.667969 211.386719 1293.550781 211.820312 Z M 1270.640625 133.691406 C 1270.300781 133.984375 1270.253906 134.488281 1270.546875 134.832031 C 1270.710938 135.019531 1270.933594 135.125 1271.167969 135.125 C 1271.34375 135.125 1271.53125 135.066406 1271.683594 134.9375 C 1271.828125 134.820312 1275.109375 132.027344 1274.347656 128.039062 C 1273.714844 124.71875 1270.6875 123.707031 1269.164062 123.636719 C 1268.671875 123.601562 1268.34375 123.96875 1268.320312 124.402344 C 1268.296875 124.847656 1268.636719 125.222656 1269.082031 125.246094 C 1269.210938 125.257812 1272.203125 125.445312 1272.753906 128.332031 C 1273.328125 131.382812 1270.664062 133.667969 1270.640625 133.691406 Z M 925.636719 335.351562 C 919.195312 334.847656 913.636719 334.425781 910.550781 333.710938 C 899.792969 331.246094 897.554688 322.917969 897.472656 322.566406 C 897.367188 322.132812 896.917969 321.871094 896.484375 321.980469 C 896.050781 322.085938 895.792969 322.53125 895.898438 322.953125 C 895.992188 323.339844 898.433594 332.59375 910.1875 335.28125 C 913.390625 336.007812 918.738281 336.429688 925.507812 336.960938 C 942.367188 338.273438 967.742188 340.230469 981.820312 349.535156 L 972.996094 396.625 C 972.914062 397.058594 973.207031 397.480469 973.640625 397.5625 C 973.6875 397.574219 973.746094 397.574219 973.792969 397.574219 C 974.179688 397.574219 974.511719 397.304688 974.59375 396.917969 L 983.519531 349.300781 C 983.578125 348.984375 983.449219 348.667969 983.179688 348.480469 C 968.84375 338.707031 942.847656 336.691406 925.636719 335.351562 Z M 1026.046875 395.320312 C 1025.609375 395.203125 1025.164062 395.464844 1025.058594 395.898438 L 1007.535156 462.625 L 1001.550781 460.546875 C 1001.128906 460.394531 1000.671875 460.628906 1000.519531 461.050781 C 1000.367188 461.476562 1000.601562 461.933594 1001.011719 462.085938 L 1007.816406 464.441406 C 1007.898438 464.476562 1007.992188 464.488281 1008.085938 464.488281 C 1008.214844 464.488281 1008.34375 464.453125 1008.460938 464.394531 C 1008.660156 464.289062 1008.800781 464.101562 1008.859375 463.890625 L 1026.609375 396.320312 C 1026.738281 395.875 1026.480469 395.441406 1026.046875 395.320312 Z M 974.734375 472.277344 C 974.558594 472.421875 970.484375 475.890625 970.945312 481.710938 C 970.980469 482.132812 971.332031 482.449219 971.753906 482.449219 C 971.777344 482.449219 971.800781 482.449219 971.824219 482.449219 C 972.269531 482.414062 972.597656 482.027344 972.5625 481.582031 C 972.164062 476.621094 975.742188 473.558594 975.777344 473.523438 C 976.117188 473.230469 976.164062 472.726562 975.882812 472.386719 C 975.589844 472.042969 975.085938 471.996094 974.734375 472.277344 Z M 1046.820312 533.035156 C 1046.984375 532.625 1046.785156 532.15625 1046.375 531.980469 C 1045.953125 531.804688 1045.496094 532.015625 1045.320312 532.425781 C 1045.238281 532.636719 1043.21875 537.75 1046.503906 542.433594 C 1046.65625 542.65625 1046.914062 542.773438 1047.160156 542.773438 C 1047.324219 542.773438 1047.476562 542.726562 1047.628906 542.621094 C 1047.996094 542.363281 1048.089844 541.855469 1047.828125 541.492188 C 1045.0625 537.5625 1046.796875 533.082031 1046.820312 533.035156 Z M 904.554688 297.882812 C 904.625 297.917969 904.699219 297.941406 904.78125 297.953125 L 921.273438 300.007812 C 921.308594 300.007812 921.34375 300.019531 921.378906 300.019531 C 921.777344 300.019531 922.128906 299.710938 922.175781 299.3125 C 922.234375 298.867188 921.917969 298.46875 921.472656 298.410156 L 906.082031 296.488281 C 919.914062 283.734375 939.421875 264.871094 939.644531 264.660156 C 939.808594 264.507812 939.890625 264.285156 939.890625 264.0625 C 939.890625 263.839844 939.785156 263.628906 939.621094 263.476562 L 938.109375 262.101562 L 945.207031 262.195312 C 945.207031 262.195312 945.21875 262.195312 945.21875 262.195312 C 945.664062 262.195312 946.015625 261.84375 946.027344 261.398438 C 946.027344 260.953125 945.675781 260.589844 945.230469 260.578125 L 936.710938 260.472656 L 923.046875 227.390625 C 922.867188 226.980469 922.398438 226.78125 921.988281 226.957031 C 921.578125 227.121094 921.378906 227.601562 921.554688 228.011719 L 934.15625 258.535156 L 915.796875 241.902344 C 915.523438 241.65625 915.113281 241.621094 914.796875 241.832031 L 899.992188 251.753906 L 900.625 194.507812 L 896.824219 187.796875 L 891.042969 196.664062 L 887.570312 209.195312 L 885.058594 197.828125 L 870.03125 185.496094 L 862.945312 191.328125 L 895.945312 254.476562 L 879.769531 265.328125 C 879.394531 265.574219 879.300781 266.078125 879.546875 266.453125 C 879.792969 266.828125 880.296875 266.925781 880.671875 266.675781 L 915.171875 243.542969 L 937.898438 264.097656 C 933.882812 267.980469 911.429688 289.613281 899.300781 300.476562 C 883.265625 314.847656 857.164062 315.433594 846.253906 306.339844 C 833.160156 295.429688 829.722656 286.035156 829.699219 285.941406 C 829.546875 285.519531 829.089844 285.296875 828.667969 285.449219 C 828.246094 285.601562 828.023438 286.058594 828.175781 286.480469 C 828.316406 286.878906 831.753906 296.359375 845.21875 307.585938 C 850.617188 312.078125 858.066406 314.035156 865.960938 314.035156 C 878.453125 314.035156 892.050781 309.144531 900.378906 301.683594 C 901.671875 300.523438 903.078125 299.242188 904.554688 297.882812 Z M 861.503906 257.269531 C 861.539062 257.269531 861.574219 257.269531 861.609375 257.257812 C 862.054688 257.199219 862.359375 256.789062 862.300781 256.34375 L 859.742188 237.511719 C 859.683594 237.066406 859.285156 236.761719 858.828125 236.820312 C 858.382812 236.878906 858.078125 237.289062 858.136719 237.738281 L 860.695312 256.566406 C 860.753906 256.976562 861.105469 257.269531 861.503906 257.269531 Z M 887.59375 144.0625 C 887.59375 145.1875 888.507812 146.105469 889.632812 146.105469 C 890.761719 146.105469 891.675781 145.1875 891.675781 144.0625 C 891.675781 142.9375 890.761719 142.019531 889.632812 142.019531 C 888.507812 142.019531 887.59375 142.9375 887.59375 144.0625 Z M 911.078125 144.0625 C 911.078125 145.1875 911.992188 146.105469 913.121094 146.105469 C 914.246094 146.105469 915.160156 145.1875 915.160156 144.0625 C 915.160156 142.9375 914.246094 142.019531 913.121094 142.019531 C 911.992188 142.019531 911.078125 142.9375 911.078125 144.0625 Z M 909.460938 155.851562 C 909.789062 155.335938 909.824219 154.726562 909.566406 154.117188 C 908.582031 151.816406 905.578125 146.28125 905.449219 146.046875 C 905.238281 145.65625 904.746094 145.503906 904.34375 145.714844 C 903.957031 145.929688 903.804688 146.421875 904.015625 146.820312 C 904.050781 146.878906 907.113281 152.53125 908.0625 154.761719 C 908.121094 154.914062 908.097656 154.949219 908.074219 154.984375 C 907.6875 155.582031 905.425781 156.039062 903.558594 156.085938 C 903.113281 156.097656 902.761719 156.472656 902.773438 156.921875 C 902.785156 157.355469 903.148438 157.707031 903.582031 157.707031 C 903.59375 157.707031 903.59375 157.707031 903.605469 157.707031 C 904.414062 157.683594 908.417969 157.496094 909.460938 155.851562 Z M 902.105469 165.15625 C 903.113281 165.15625 904.285156 164.980469 905.648438 164.523438 C 906.070312 164.382812 906.304688 163.921875 906.164062 163.5 C 906.023438 163.078125 905.566406 162.84375 905.144531 162.984375 C 900.039062 164.6875 898.339844 161.859375 898.269531 161.730469 C 898.058594 161.34375 897.566406 161.203125 897.175781 161.414062 C 896.789062 161.625 896.636719 162.117188 896.847656 162.515625 C 896.917969 162.644531 898.339844 165.15625 902.105469 165.15625 Z M 898.550781 137.117188 C 898.691406 137.222656 898.867188 137.269531 899.03125 137.269531 C 899.277344 137.269531 899.523438 137.152344 899.6875 136.941406 C 899.945312 136.578125 899.875 136.074219 899.511719 135.816406 C 891.792969 130.160156 882.996094 135.734375 882.914062 135.792969 C 882.535156 136.039062 882.429688 136.53125 882.679688 136.90625 C 882.925781 137.28125 883.417969 137.386719 883.792969 137.152344 C 884.097656 136.941406 891.746094 132.132812 898.550781 137.117188 Z M 906.550781 135.816406 C 906.1875 136.085938 906.117188 136.589844 906.386719 136.941406 C 906.65625 137.304688 907.160156 137.375 907.511719 137.105469 C 907.746094 136.929688 913.414062 132.835938 917.917969 137.046875 C 918.070312 137.1875 918.269531 137.269531 918.46875 137.269531 C 918.679688 137.269531 918.902344 137.1875 919.054688 137.011719 C 919.359375 136.683594 919.347656 136.179688 919.019531 135.875 C 913.53125 130.746094 906.621094 135.769531 906.550781 135.816406 Z M 837.265625 135.992188 C 836.855469 151.757812 846.207031 169.144531 864.8125 179.796875 L 860.152344 157.625 C 860.152344 157.625 851.8125 159.886719 849.84375 151.394531 C 847.871094 142.902344 858.628906 141.386719 858.628906 141.386719 L 860.140625 157.625 C 860.140625 157.625 866.429688 153.472656 870.96875 145.445312 L 881.082031 145.445312 C 881.292969 148.367188 882.820312 154.597656 891.992188 154.597656 C 899.886719 154.597656 902.105469 146.726562 902.515625 144.835938 C 903.171875 144.507812 904.886719 143.863281 906.632812 144.824219 C 907.03125 146.550781 909.085938 153.613281 915.511719 153.613281 C 917.71875 153.613281 919.445312 152.988281 920.652344 151.78125 C 922.714844 149.707031 922.703125 146.410156 922.691406 144.636719 L 922.691406 144.308594 C 922.691406 143.863281 922.328125 143.5 921.882812 143.5 C 921.4375 143.5 921.074219 143.863281 921.074219 144.308594 L 921.074219 144.636719 C 921.085938 146.28125 921.097656 149.035156 919.503906 150.632812 C 918.609375 151.535156 917.261719 151.980469 915.511719 151.980469 C 909.578125 151.980469 908.191406 144.472656 908.144531 144.15625 C 908.109375 143.933594 907.980469 143.734375 907.78125 143.617188 C 904.601562 141.5625 901.484375 143.535156 901.355469 143.617188 C 901.167969 143.746094 901.027344 143.945312 900.988281 144.167969 C 900.929688 144.53125 899.511719 152.953125 891.980469 152.953125 C 883.875 152.953125 882.652344 147.734375 882.652344 144.613281 C 882.652344 144.167969 882.289062 143.804688 881.84375 143.804688 L 871.816406 143.804688 C 874.910156 137.632812 876.8125 129.457031 874.488281 119.355469 C 874.488281 119.355469 894.386719 129.527344 916.265625 125.105469 C 916.265625 125.105469 912.734375 107.203125 895.265625 103.226562 C 879.863281 99.71875 860.859375 99.144531 847.941406 111.625 C 846.582031 109.375 843.027344 105.480469 835.050781 106.464844 C 823.988281 107.824219 819.597656 123.734375 825.652344 131.3125 C 829.230469 135.757812 833.945312 136.296875 837.265625 135.992188 Z M 891.535156 186.484375 C 892.214844 186.765625 894.351562 187.175781 896.8125 187.574219 L 896.542969 183.972656 C 891.054688 183.972656 889.609375 185.683594 891.535156 186.484375 Z M 871.722656 263.699219 C 871.273438 263.617188 870.863281 263.910156 870.78125 264.34375 C 870.6875 264.871094 868.4375 277.199219 871.4375 281.707031 C 871.589844 281.941406 871.851562 282.070312 872.109375 282.070312 C 872.261719 282.070312 872.414062 282.023438 872.554688 281.929688 C 872.929688 281.683594 873.023438 281.175781 872.777344 280.800781 C 870.582031 277.515625 871.734375 268.015625 872.367188 264.625 C 872.449219 264.203125 872.15625 263.78125 871.722656 263.699219 Z M 864.589844 266.722656 C 864.140625 266.640625 863.730469 266.9375 863.648438 267.371094 C 863.554688 267.898438 861.304688 280.226562 864.304688 284.730469 C 864.460938 284.964844 864.71875 285.09375 864.976562 285.09375 C 865.128906 285.09375 865.28125 285.046875 865.421875 284.953125 C 865.796875 284.707031 865.890625 284.203125 865.644531 283.828125 C 863.449219 280.542969 864.601562 271.042969 865.234375 267.664062 C 865.316406 267.230469 865.023438 266.804688 864.589844 266.722656 Z M 857.984375 270.476562 C 857.539062 270.394531 857.128906 270.691406 857.046875 271.125 C 856.949219 271.652344 854.699219 283.980469 857.703125 288.484375 C 857.855469 288.71875 858.113281 288.847656 858.371094 288.847656 C 858.523438 288.847656 858.675781 288.800781 858.816406 288.707031 C 859.191406 288.460938 859.285156 287.957031 859.039062 287.582031 C 856.84375 284.296875 857.996094 274.796875 858.628906 271.417969 C 858.710938 270.984375 858.417969 270.5625 857.984375 270.476562 Z M 1003.898438 146.65625 C 994.441406 146.65625 992.65625 140.472656 992.445312 136.730469 C 992.375 135.476562 992.058594 131.382812 991.625 125.703125 C 990.300781 108.292969 988.070312 79.152344 988.28125 72.890625 C 988.5625 64.371094 994.488281 59.914062 1000.179688 59.914062 C 1002.511719 59.914062 1029.578125 59.667969 1058.210938 59.410156 C 1091.140625 59.105469 1125.175781 58.800781 1128.550781 58.800781 C 1134.875 58.800781 1137.960938 62.601562 1137.960938 70.425781 C 1137.960938 75.726562 1138.136719 98.570312 1138.183594 105.445312 C 1138.21875 109.1875 1140.308594 112.585938 1143.640625 114.300781 L 1174.949219 130.417969 C 1175.289062 130.59375 1175.453125 130.980469 1175.359375 131.347656 C 1175.265625 131.710938 1174.996094 131.992188 1174.539062 131.945312 L 1144.472656 130.605469 C 1141.09375 130.453125 1137.9375 131.96875 1135.96875 134.640625 C 1134.277344 136.941406 1131.8125 138.265625 1128.636719 138.597656 C 1121.339844 139.347656 1013.574219 146.339844 1004.648438 146.644531 C 1004.402344 146.65625 1004.144531 146.65625 1003.898438 146.65625 Z M 1004.601562 145.023438 C 1013.515625 144.730469 1121.183594 137.738281 1128.46875 136.988281 C 1131.179688 136.707031 1133.257812 135.605469 1134.664062 133.691406 C 1136.953125 130.582031 1140.636719 128.824219 1144.542969 129 L 1170.925781 130.171875 L 1142.898438 115.742188 C 1139.027344 113.75 1136.601562 109.808594 1136.566406 105.457031 C 1136.507812 98.582031 1136.34375 75.726562 1136.34375 70.425781 C 1136.34375 63.503906 1133.9375 60.417969 1128.550781 60.417969 C 1125.175781 60.417969 1091.140625 60.722656 1058.234375 61.027344 C 1029.589844 61.285156 1002.535156 61.535156 1000.191406 61.535156 C 995.273438 61.535156 990.160156 65.453125 989.914062 72.949219 C 989.703125 79.117188 992.011719 109.351562 993.257812 125.585938 C 993.691406 131.277344 994.007812 135.382812 994.078125 136.648438 C 994.394531 142.421875 997.9375 145.246094 1004.601562 145.023438 Z M 1009.339844 80.105469 L 1114.980469 79.269531 C 1115.425781 79.269531 1115.789062 78.90625 1115.777344 78.460938 C 1115.777344 78.015625 1115.414062 77.664062 1114.96875 77.664062 C 1114.96875 77.664062 1114.96875 77.664062 1114.957031 77.664062 L 1009.328125 78.496094 C 1008.882812 78.496094 1008.519531 78.859375 1008.53125 79.304688 C 1008.53125 79.742188 1008.894531 80.105469 1009.339844 80.105469 Z M 1009.609375 97.335938 C 1009.164062 97.335938 1008.800781 97.699219 1008.8125 98.148438 C 1008.8125 98.59375 1009.175781 98.945312 1009.621094 98.945312 C 1009.621094 98.945312 1009.621094 98.945312 1009.632812 98.945312 L 1115.261719 98.113281 C 1115.707031 98.113281 1116.070312 97.746094 1116.058594 97.300781 C 1116.058594 96.855469 1115.660156 96.515625 1115.25 96.503906 Z M 1115.800781 116.742188 L 1010.160156 117.574219 C 1009.714844 117.574219 1009.351562 117.9375 1009.363281 118.382812 C 1009.363281 118.828125 1009.726562 119.179688 1010.171875 119.179688 C 1010.171875 119.179688 1010.171875 119.179688 1010.183594 119.179688 L 1115.8125 118.347656 C 1116.257812 118.347656 1116.621094 117.984375 1116.609375 117.539062 C 1116.609375 117.105469 1116.246094 116.742188 1115.800781 116.742188 Z M 1253.5625 172.371094 C 1253.5625 170.503906 1251.859375 169.308594 1243.015625 171.042969 L 1244.574219 178.882812 C 1248.621094 176.546875 1253.5625 173.472656 1253.5625 172.371094 Z M 1253.5625 172.371094 " fill-opacity="1" fill-rule="nonzero"/></g></svg>