<svg xmlns="http://www.w3.org/2000/svg" xmlns:xlink="http://www.w3.org/1999/xlink" width="500" zoomAndPan="magnify" viewBox="0 0 375 374.999991" height="500" preserveAspectRatio="xMidYMid meet" version="1.0"><defs><g/><clipPath id="34649b0cb7"><path d="M 89.515625 79 L 268 79 L 268 153.25 L 89.515625 153.25 Z M 89.515625 79 " clip-rule="nonzero"/></clipPath><clipPath id="51006599bd"><path d="M 143 97 L 285.265625 97 L 285.265625 153.25 L 143 153.25 Z M 143 97 " clip-rule="nonzero"/></clipPath><clipPath id="c8ca0378a2"><path d="M 89.515625 221.519531 L 268 221.519531 L 268 295.769531 L 89.515625 295.769531 Z M 89.515625 221.519531 " clip-rule="nonzero"/></clipPath><clipPath id="161af314f6"><path d="M 143 221.519531 L 285.265625 221.519531 L 285.265625 278 L 143 278 Z M 143 221.519531 " clip-rule="nonzero"/></clipPath></defs><rect x="-37.5" width="450" fill="#ffffff" y="-37.499999" height="449.999989" fill-opacity="1"/><rect x="-37.5" width="450" fill="#ffffff" y="-37.499999" height="449.999989" fill-opacity="1"/><g clip-path="url(#34649b0cb7)"><path fill="#52694e" d="M 202.089844 268.496094 C 152.445312 268.496094 112.199219 228.25 112.199219 178.601562 C 112.199219 128.957031 152.445312 88.710938 202.089844 88.710938 C 227.796875 88.710938 250.980469 99.503906 267.363281 116.800781 C 249.117188 93.773438 220.90625 78.996094 189.246094 78.996094 C 134.234375 78.996094 89.640625 123.589844 89.640625 178.601562 C 89.640625 233.613281 134.234375 278.210938 189.246094 278.210938 C 220.90625 278.210938 249.117188 263.433594 267.363281 240.402344 C 250.980469 257.703125 227.796875 268.496094 202.089844 268.496094 " fill-opacity="1" fill-rule="nonzero"/></g><g clip-path="url(#51006599bd)"><path fill="#9e7f5f" d="M 204.710938 97.941406 C 180.117188 97.941406 158.097656 108.945312 143.300781 126.304688 C 157.71875 112.8125 177.097656 104.550781 198.402344 104.550781 C 242.953125 104.550781 279.070312 140.660156 279.070312 185.210938 C 279.070312 205.164062 271.820312 223.417969 259.820312 237.5 C 275.546875 222.78125 285.375 201.839844 285.375 178.601562 C 285.375 134.050781 249.261719 97.941406 204.710938 97.941406 " fill-opacity="1" fill-rule="nonzero"/></g><g clip-path="url(#c8ca0378a2)"><path fill="#9e7f5f" d="M 202.089844 106.492188 C 152.445312 106.492188 112.199219 146.742188 112.199219 196.386719 C 112.199219 246.035156 152.445312 286.28125 202.089844 286.28125 C 227.796875 286.28125 250.980469 275.488281 267.363281 258.1875 C 249.117188 281.21875 220.90625 295.996094 189.246094 295.996094 C 134.234375 295.996094 89.640625 251.398438 89.640625 196.386719 C 89.640625 141.375 134.234375 96.78125 189.246094 96.78125 C 220.90625 96.78125 249.117188 111.558594 267.363281 134.585938 C 250.980469 117.289062 227.796875 106.492188 202.089844 106.492188 " fill-opacity="1" fill-rule="nonzero"/></g><g clip-path="url(#161af314f6)"><path fill="#52694e" d="M 204.710938 277.050781 C 180.117188 277.050781 158.097656 266.042969 143.300781 248.683594 C 157.71875 262.179688 177.097656 270.441406 198.402344 270.441406 C 242.953125 270.441406 279.070312 234.328125 279.070312 189.777344 C 279.070312 169.824219 271.820312 151.570312 259.820312 137.488281 C 275.546875 152.207031 285.375 173.148438 285.375 196.386719 C 285.375 240.9375 249.261719 277.050781 204.710938 277.050781 " fill-opacity="1" fill-rule="nonzero"/></g><g fill="#52694e" fill-opacity="1"><g transform="translate(8.425963, 187.86949)"><g><path d="M 20.734375 0.609375 C 14.910156 0.597656 10.335938 -0.867188 7.015625 -3.796875 C 3.691406 -6.734375 2.03125 -10.753906 2.03125 -15.859375 C 2.03125 -20.960938 3.675781 -24.984375 6.96875 -27.921875 C 10.257812 -30.867188 14.773438 -32.34375 20.515625 -32.34375 C 24.898438 -32.34375 28.660156 -31.523438 31.796875 -29.890625 L 31.890625 -22.109375 L 31.53125 -22.109375 C 29.988281 -27.660156 26.46875 -30.4375 20.96875 -30.4375 C 17.40625 -30.4375 14.585938 -29.144531 12.515625 -26.5625 C 10.453125 -23.976562 9.421875 -20.453125 9.421875 -15.984375 C 9.421875 -11.515625 10.410156 -7.96875 12.390625 -5.34375 C 14.367188 -2.71875 17.046875 -1.359375 20.421875 -1.265625 C 23.929688 -1.265625 26.609375 -2.140625 28.453125 -3.890625 C 30.316406 -5.703125 31.613281 -8.816406 32.34375 -13.234375 L 32.703125 -13.234375 L 33.15625 -5.4375 C 30.707031 -1.382812 26.566406 0.628906 20.734375 0.609375 Z M 20.734375 0.609375 "/></g></g></g><g fill="#52694e" fill-opacity="1"><g transform="translate(44.438817, 187.86949)"><g><path d="M 33.4375 -0.453125 L 33.84375 -0.453125 L 33.84375 0 L 19.390625 0 L 19.390625 -0.453125 L 19.796875 -0.453125 C 20.460938 -0.453125 20.953125 -0.65625 21.265625 -1.0625 C 21.585938 -1.46875 21.75 -1.851562 21.75 -2.21875 C 21.75 -2.582031 21.671875 -2.945312 21.515625 -3.3125 L 19.296875 -8.875 L 8.703125 -8.875 L 6.34375 -3.3125 C 6.1875 -2.914062 6.109375 -2.539062 6.109375 -2.1875 C 6.109375 -1.84375 6.273438 -1.46875 6.609375 -1.0625 C 6.941406 -0.65625 7.441406 -0.453125 8.109375 -0.453125 L 8.46875 -0.453125 L 8.46875 0 L -1.21875 0 L -1.21875 -0.453125 L -0.8125 -0.453125 C -0.113281 -0.453125 0.578125 -0.660156 1.265625 -1.078125 C 1.960938 -1.503906 2.535156 -2.140625 2.984375 -2.984375 L 13.453125 -26.6875 C 14.867188 -29.675781 15.625 -31.648438 15.71875 -32.609375 L 16.125 -32.609375 L 29.578125 -3.078125 C 30.035156 -2.203125 30.609375 -1.546875 31.296875 -1.109375 C 31.992188 -0.671875 32.707031 -0.453125 33.4375 -0.453125 Z M 9.46875 -10.78125 L 18.53125 -10.78125 L 14.140625 -21.921875 Z M 9.46875 -10.78125 "/></g></g></g><g fill="#52694e" fill-opacity="1"><g transform="translate(77.552534, 187.86949)"><g><path d="M 14.40625 -29.71875 L 12.453125 -29.71875 C 12.390625 -29.71875 12.347656 -29.71875 12.328125 -29.71875 L 12.328125 -3.3125 C 12.347656 -2.519531 12.640625 -1.84375 13.203125 -1.28125 C 13.765625 -0.726562 14.4375 -0.453125 15.21875 -0.453125 L 15.8125 -0.453125 L 15.8125 0 L 2.03125 0 L 2.03125 -0.453125 L 2.625 -0.453125 C 3.71875 -0.453125 4.550781 -0.921875 5.125 -1.859375 C 5.363281 -2.273438 5.5 -2.742188 5.53125 -3.265625 L 5.53125 -28.40625 C 5.5 -29.1875 5.203125 -29.851562 4.640625 -30.40625 C 4.085938 -30.96875 3.414062 -31.25 2.625 -31.25 L 2.03125 -31.25 L 2.03125 -31.703125 L 17.578125 -31.703125 C 20.503906 -31.703125 22.976562 -31.070312 25 -29.8125 C 26.03125 -29.175781 26.847656 -28.289062 27.453125 -27.15625 C 28.054688 -26.019531 28.359375 -24.535156 28.359375 -22.703125 C 28.359375 -20.878906 27.722656 -19.125 26.453125 -17.4375 C 25.179688 -15.75 23.335938 -14.785156 20.921875 -14.546875 C 22.671875 -13.960938 24.210938 -12.628906 25.546875 -10.546875 C 28.804688 -5.328125 31.222656 -2.21875 32.796875 -1.21875 C 33.578125 -0.738281 34.554688 -0.484375 35.734375 -0.453125 L 35.734375 0 L 31.296875 0 C 28.671875 0 26.488281 -0.34375 24.75 -1.03125 C 23.019531 -1.726562 21.65625 -2.953125 20.65625 -4.703125 C 20.082031 -5.703125 18.828125 -8.285156 16.890625 -12.453125 C 16.046875 -14.296875 15.019531 -15.304688 13.8125 -15.484375 L 13.8125 -15.9375 L 15.21875 -15.9375 C 16.582031 -15.9375 17.785156 -16.34375 18.828125 -17.15625 C 19.867188 -17.976562 20.566406 -19.3125 20.921875 -21.15625 C 21.046875 -21.789062 21.109375 -22.289062 21.109375 -22.65625 C 21.109375 -25.125 20.609375 -26.910156 19.609375 -28.015625 C 18.617188 -29.117188 17.335938 -29.6875 15.765625 -29.71875 C 15.460938 -29.71875 15.007812 -29.71875 14.40625 -29.71875 Z M 14.40625 -29.71875 "/></g></g></g><g fill="#52694e" fill-opacity="1"><g transform="translate(112.070519, 187.86949)"><g><path d="M 2.484375 -0.453125 C 3.273438 -0.453125 3.945312 -0.726562 4.5 -1.28125 C 5.0625 -1.84375 5.359375 -2.519531 5.390625 -3.3125 L 5.390625 -28.53125 C 5.328125 -29.320312 5.097656 -29.898438 4.703125 -30.265625 C 3.984375 -30.921875 3.242188 -31.25 2.484375 -31.25 L 1.90625 -31.25 L 1.90625 -31.703125 L 19.25 -31.703125 C 20.726562 -31.703125 21.953125 -31.816406 22.921875 -32.046875 C 23.890625 -32.273438 24.476562 -32.429688 24.6875 -32.515625 L 24.6875 -24.59375 L 24.234375 -24.640625 L 24.234375 -25.140625 C 24.234375 -27.015625 23.539062 -28.34375 22.15625 -29.125 C 21.488281 -29.519531 20.703125 -29.734375 19.796875 -29.765625 L 12.1875 -29.765625 L 12.1875 -16.578125 L 18.15625 -16.578125 C 19.28125 -16.609375 20.203125 -16.992188 20.921875 -17.734375 C 21.648438 -18.472656 22.015625 -19.382812 22.015625 -20.46875 L 22.015625 -20.875 L 22.46875 -20.875 L 22.46875 -10.421875 L 22.015625 -10.421875 L 22.015625 -10.78125 C 22.015625 -11.894531 21.660156 -12.8125 20.953125 -13.53125 C 20.242188 -14.257812 19.34375 -14.640625 18.25 -14.671875 L 12.1875 -14.671875 L 12.1875 -1.953125 L 18.125 -1.953125 C 20.320312 -1.953125 22.164062 -2.582031 23.65625 -3.84375 C 25.15625 -5.113281 26.269531 -6.910156 27 -9.234375 L 27.453125 -9.234375 L 25.359375 0 L 1.90625 0 L 1.90625 -0.453125 Z M 2.484375 -0.453125 "/></g></g></g><g fill="#52694e" fill-opacity="1"><g transform="translate(141.333811, 187.86949)"><g><path d="M 2.484375 -0.453125 C 3.273438 -0.453125 3.945312 -0.726562 4.5 -1.28125 C 5.0625 -1.84375 5.359375 -2.519531 5.390625 -3.3125 L 5.390625 -28.53125 C 5.328125 -29.320312 5.097656 -29.898438 4.703125 -30.265625 C 3.984375 -30.921875 3.242188 -31.25 2.484375 -31.25 L 1.90625 -31.25 L 1.90625 -31.703125 L 19.25 -31.703125 C 20.726562 -31.703125 21.953125 -31.816406 22.921875 -32.046875 C 23.890625 -32.273438 24.476562 -32.429688 24.6875 -32.515625 L 24.6875 -24.59375 L 24.234375 -24.640625 L 24.234375 -25.140625 C 24.234375 -27.015625 23.539062 -28.34375 22.15625 -29.125 C 21.488281 -29.519531 20.703125 -29.734375 19.796875 -29.765625 L 12.1875 -29.765625 L 12.1875 -16.578125 L 18.15625 -16.578125 C 19.28125 -16.609375 20.203125 -16.992188 20.921875 -17.734375 C 21.648438 -18.472656 22.015625 -19.382812 22.015625 -20.46875 L 22.015625 -20.875 L 22.46875 -20.875 L 22.46875 -10.421875 L 22.015625 -10.421875 L 22.015625 -10.78125 C 22.015625 -11.894531 21.660156 -12.8125 20.953125 -13.53125 C 20.242188 -14.257812 19.34375 -14.640625 18.25 -14.671875 L 12.1875 -14.671875 L 12.1875 -1.953125 L 18.125 -1.953125 C 20.320312 -1.953125 22.164062 -2.582031 23.65625 -3.84375 C 25.15625 -5.113281 26.269531 -6.910156 27 -9.234375 L 27.453125 -9.234375 L 25.359375 0 L 1.90625 0 L 1.90625 -0.453125 Z M 2.484375 -0.453125 "/></g></g></g><g fill="#52694e" fill-opacity="1"><g transform="translate(170.597103, 187.86949)"><g><path d="M 14.40625 -29.71875 L 12.453125 -29.71875 C 12.390625 -29.71875 12.347656 -29.71875 12.328125 -29.71875 L 12.328125 -3.3125 C 12.347656 -2.519531 12.640625 -1.84375 13.203125 -1.28125 C 13.765625 -0.726562 14.4375 -0.453125 15.21875 -0.453125 L 15.8125 -0.453125 L 15.8125 0 L 2.03125 0 L 2.03125 -0.453125 L 2.625 -0.453125 C 3.71875 -0.453125 4.550781 -0.921875 5.125 -1.859375 C 5.363281 -2.273438 5.5 -2.742188 5.53125 -3.265625 L 5.53125 -28.40625 C 5.5 -29.1875 5.203125 -29.851562 4.640625 -30.40625 C 4.085938 -30.96875 3.414062 -31.25 2.625 -31.25 L 2.03125 -31.25 L 2.03125 -31.703125 L 17.578125 -31.703125 C 20.503906 -31.703125 22.976562 -31.070312 25 -29.8125 C 26.03125 -29.175781 26.847656 -28.289062 27.453125 -27.15625 C 28.054688 -26.019531 28.359375 -24.535156 28.359375 -22.703125 C 28.359375 -20.878906 27.722656 -19.125 26.453125 -17.4375 C 25.179688 -15.75 23.335938 -14.785156 20.921875 -14.546875 C 22.671875 -13.960938 24.210938 -12.628906 25.546875 -10.546875 C 28.804688 -5.328125 31.222656 -2.21875 32.796875 -1.21875 C 33.578125 -0.738281 34.554688 -0.484375 35.734375 -0.453125 L 35.734375 0 L 31.296875 0 C 28.671875 0 26.488281 -0.34375 24.75 -1.03125 C 23.019531 -1.726562 21.65625 -2.953125 20.65625 -4.703125 C 20.082031 -5.703125 18.828125 -8.285156 16.890625 -12.453125 C 16.046875 -14.296875 15.019531 -15.304688 13.8125 -15.484375 L 13.8125 -15.9375 L 15.21875 -15.9375 C 16.582031 -15.9375 17.785156 -16.34375 18.828125 -17.15625 C 19.867188 -17.976562 20.566406 -19.3125 20.921875 -21.15625 C 21.046875 -21.789062 21.109375 -22.289062 21.109375 -22.65625 C 21.109375 -25.125 20.609375 -26.910156 19.609375 -28.015625 C 18.617188 -29.117188 17.335938 -29.6875 15.765625 -29.71875 C 15.460938 -29.71875 15.007812 -29.71875 14.40625 -29.71875 Z M 14.40625 -29.71875 "/></g></g></g><g fill="#52694e" fill-opacity="1"><g transform="translate(205.115088, 187.86949)"><g><path d="M 20.734375 0.609375 C 14.910156 0.597656 10.335938 -0.867188 7.015625 -3.796875 C 3.691406 -6.734375 2.03125 -10.753906 2.03125 -15.859375 C 2.03125 -20.960938 3.675781 -24.984375 6.96875 -27.921875 C 10.257812 -30.867188 14.773438 -32.34375 20.515625 -32.34375 C 24.898438 -32.34375 28.660156 -31.523438 31.796875 -29.890625 L 31.890625 -22.109375 L 31.53125 -22.109375 C 29.988281 -27.660156 26.46875 -30.4375 20.96875 -30.4375 C 17.40625 -30.4375 14.585938 -29.144531 12.515625 -26.5625 C 10.453125 -23.976562 9.421875 -20.453125 9.421875 -15.984375 C 9.421875 -11.515625 10.410156 -7.96875 12.390625 -5.34375 C 14.367188 -2.71875 17.046875 -1.359375 20.421875 -1.265625 C 23.929688 -1.265625 26.609375 -2.140625 28.453125 -3.890625 C 30.316406 -5.703125 31.613281 -8.816406 32.34375 -13.234375 L 32.703125 -13.234375 L 33.15625 -5.4375 C 30.707031 -1.382812 26.566406 0.628906 20.734375 0.609375 Z M 20.734375 0.609375 "/></g></g></g><g fill="#52694e" fill-opacity="1"><g transform="translate(241.127942, 187.86949)"><g><path d="M 14.40625 -29.71875 L 12.453125 -29.71875 C 12.390625 -29.71875 12.347656 -29.71875 12.328125 -29.71875 L 12.328125 -3.3125 C 12.347656 -2.519531 12.640625 -1.84375 13.203125 -1.28125 C 13.765625 -0.726562 14.4375 -0.453125 15.21875 -0.453125 L 15.8125 -0.453125 L 15.8125 0 L 2.03125 0 L 2.03125 -0.453125 L 2.625 -0.453125 C 3.71875 -0.453125 4.550781 -0.921875 5.125 -1.859375 C 5.363281 -2.273438 5.5 -2.742188 5.53125 -3.265625 L 5.53125 -28.40625 C 5.5 -29.1875 5.203125 -29.851562 4.640625 -30.40625 C 4.085938 -30.96875 3.414062 -31.25 2.625 -31.25 L 2.03125 -31.25 L 2.03125 -31.703125 L 17.578125 -31.703125 C 20.503906 -31.703125 22.976562 -31.070312 25 -29.8125 C 26.03125 -29.175781 26.847656 -28.289062 27.453125 -27.15625 C 28.054688 -26.019531 28.359375 -24.535156 28.359375 -22.703125 C 28.359375 -20.878906 27.722656 -19.125 26.453125 -17.4375 C 25.179688 -15.75 23.335938 -14.785156 20.921875 -14.546875 C 22.671875 -13.960938 24.210938 -12.628906 25.546875 -10.546875 C 28.804688 -5.328125 31.222656 -2.21875 32.796875 -1.21875 C 33.578125 -0.738281 34.554688 -0.484375 35.734375 -0.453125 L 35.734375 0 L 31.296875 0 C 28.671875 0 26.488281 -0.34375 24.75 -1.03125 C 23.019531 -1.726562 21.65625 -2.953125 20.65625 -4.703125 C 20.082031 -5.703125 18.828125 -8.285156 16.890625 -12.453125 C 16.046875 -14.296875 15.019531 -15.304688 13.8125 -15.484375 L 13.8125 -15.9375 L 15.21875 -15.9375 C 16.582031 -15.9375 17.785156 -16.34375 18.828125 -17.15625 C 19.867188 -17.976562 20.566406 -19.3125 20.921875 -21.15625 C 21.046875 -21.789062 21.109375 -22.289062 21.109375 -22.65625 C 21.109375 -25.125 20.609375 -26.910156 19.609375 -28.015625 C 18.617188 -29.117188 17.335938 -29.6875 15.765625 -29.71875 C 15.460938 -29.71875 15.007812 -29.71875 14.40625 -29.71875 Z M 14.40625 -29.71875 "/></g></g></g><g fill="#52694e" fill-opacity="1"><g transform="translate(275.645915, 187.86949)"><g><path d="M 33.4375 -0.453125 L 33.84375 -0.453125 L 33.84375 0 L 19.390625 0 L 19.390625 -0.453125 L 19.796875 -0.453125 C 20.460938 -0.453125 20.953125 -0.65625 21.265625 -1.0625 C 21.585938 -1.46875 21.75 -1.851562 21.75 -2.21875 C 21.75 -2.582031 21.671875 -2.945312 21.515625 -3.3125 L 19.296875 -8.875 L 8.703125 -8.875 L 6.34375 -3.3125 C 6.1875 -2.914062 6.109375 -2.539062 6.109375 -2.1875 C 6.109375 -1.84375 6.273438 -1.46875 6.609375 -1.0625 C 6.941406 -0.65625 7.441406 -0.453125 8.109375 -0.453125 L 8.46875 -0.453125 L 8.46875 0 L -1.21875 0 L -1.21875 -0.453125 L -0.8125 -0.453125 C -0.113281 -0.453125 0.578125 -0.660156 1.265625 -1.078125 C 1.960938 -1.503906 2.535156 -2.140625 2.984375 -2.984375 L 13.453125 -26.6875 C 14.867188 -29.675781 15.625 -31.648438 15.71875 -32.609375 L 16.125 -32.609375 L 29.578125 -3.078125 C 30.035156 -2.203125 30.609375 -1.546875 31.296875 -1.109375 C 31.992188 -0.671875 32.707031 -0.453125 33.4375 -0.453125 Z M 9.46875 -10.78125 L 18.53125 -10.78125 L 14.140625 -21.921875 Z M 9.46875 -10.78125 "/></g></g></g><g fill="#52694e" fill-opacity="1"><g transform="translate(308.759632, 187.86949)"><g><path d="M 12.1875 -29.765625 L 12.1875 -16.578125 L 18.15625 -16.578125 C 19.28125 -16.609375 20.203125 -16.984375 20.921875 -17.703125 C 21.648438 -18.429688 22.015625 -19.351562 22.015625 -20.46875 L 22.015625 -20.875 L 22.46875 -20.875 L 22.46875 -10.421875 L 22.015625 -10.421875 L 22.015625 -10.78125 C 22.015625 -11.894531 21.660156 -12.8125 20.953125 -13.53125 C 20.242188 -14.257812 19.34375 -14.640625 18.25 -14.671875 L 12.1875 -14.671875 L 12.1875 -3.3125 C 12.1875 -2.519531 12.472656 -1.84375 13.046875 -1.28125 C 13.617188 -0.726562 14.296875 -0.453125 15.078125 -0.453125 L 15.625 -0.453125 L 15.671875 0 L 1.90625 0 L 1.90625 -0.453125 L 2.484375 -0.453125 C 3.273438 -0.453125 3.945312 -0.726562 4.5 -1.28125 C 5.0625 -1.84375 5.359375 -2.519531 5.390625 -3.3125 L 5.390625 -28.53125 C 5.390625 -29.59375 4.890625 -30.378906 3.890625 -30.890625 C 3.472656 -31.128906 3.003906 -31.25 2.484375 -31.25 L 1.90625 -31.25 L 1.90625 -31.703125 L 19.25 -31.703125 C 20.1875 -31.703125 21.210938 -31.789062 22.328125 -31.96875 C 23.441406 -32.15625 24.226562 -32.335938 24.6875 -32.515625 L 24.6875 -24.875 L 24.234375 -24.875 L 24.234375 -25.328125 C 24.234375 -26.648438 23.847656 -27.710938 23.078125 -28.515625 C 22.304688 -29.316406 21.257812 -29.734375 19.9375 -29.765625 Z M 12.1875 -29.765625 "/></g></g></g><g fill="#52694e" fill-opacity="1"><g transform="translate(336.392165, 187.86949)"><g><path d="M 18.53125 -29.84375 L 18.53125 -3.265625 C 18.5625 -2.472656 18.851562 -1.804688 19.40625 -1.265625 C 19.96875 -0.722656 20.640625 -0.453125 21.421875 -0.453125 L 21.96875 -0.453125 L 22.015625 0 L 8.25 0 L 8.25 -0.453125 L 8.828125 -0.453125 C 9.585938 -0.453125 10.242188 -0.722656 10.796875 -1.265625 C 11.359375 -1.804688 11.671875 -2.457031 11.734375 -3.21875 L 11.734375 -29.84375 L 5.609375 -29.84375 C 4.222656 -29.820312 3.125 -29.382812 2.3125 -28.53125 C 1.5 -27.6875 1.09375 -26.585938 1.09375 -25.234375 L 1.09375 -24.6875 L 0.640625 -24.6875 L 0.640625 -32.5625 C 1.867188 -32.050781 3.648438 -31.78125 5.984375 -31.75 L 24.234375 -31.75 C 25.171875 -31.75 26.1875 -31.835938 27.28125 -32.015625 C 28.382812 -32.203125 29.148438 -32.382812 29.578125 -32.5625 L 29.578125 -24.6875 L 29.125 -24.6875 L 29.125 -25.234375 C 29.125 -27.097656 28.414062 -28.425781 27 -29.21875 C 26.332031 -29.613281 25.53125 -29.820312 24.59375 -29.84375 Z M 18.53125 -29.84375 "/></g></g></g><g fill="#52694e" fill-opacity="1"><g transform="translate(85.324239, 216.902381)"><g><path d="M 1.609375 -2.984375 C 1.609375 -4.515625 1.9375 -5.828125 2.59375 -6.921875 L 2.890625 -6.921875 C 2.859375 -6.742188 2.84375 -6.570312 2.84375 -6.40625 C 2.84375 -4.9375 3.367188 -3.648438 4.421875 -2.546875 C 5.484375 -1.441406 6.9375 -0.890625 8.78125 -0.890625 C 10.207031 -0.890625 11.320312 -1.234375 12.125 -1.921875 C 12.925781 -2.609375 13.328125 -3.472656 13.328125 -4.515625 C 13.328125 -5.140625 13.128906 -5.695312 12.734375 -6.1875 C 12.335938 -6.675781 11.679688 -7.21875 10.765625 -7.8125 L 5.1875 -11.5 C 3.113281 -12.882812 2.078125 -14.59375 2.078125 -16.625 C 2.078125 -16.832031 2.097656 -17.046875 2.140625 -17.265625 C 2.273438 -18.953125 2.929688 -20.304688 4.109375 -21.328125 C 5.296875 -22.359375 6.882812 -22.875 8.875 -22.875 C 10.050781 -22.875 11.503906 -22.765625 13.234375 -22.546875 L 15.25 -22.546875 L 14.828125 -17.84375 L 14.515625 -17.84375 C 14.515625 -18.945312 14.101562 -19.835938 13.28125 -20.515625 C 12.457031 -21.191406 11.363281 -21.53125 10 -21.53125 C 8.332031 -21.53125 7.125 -21.015625 6.375 -19.984375 C 5.988281 -19.492188 5.796875 -19.003906 5.796875 -18.515625 C 5.796875 -18.023438 5.894531 -17.609375 6.09375 -17.265625 C 6.382812 -16.710938 7.035156 -16.113281 8.046875 -15.46875 L 14.15625 -11.5 C 16.082031 -10.238281 17.046875 -8.59375 17.046875 -6.5625 C 17.046875 -4.300781 16.269531 -2.566406 14.71875 -1.359375 C 13.164062 -0.148438 11.109375 0.453125 8.546875 0.453125 C 7.097656 0.453125 5.757812 0.273438 4.53125 -0.078125 C 3.300781 -0.429688 2.398438 -0.90625 1.828125 -1.5 C 1.679688 -1.90625 1.609375 -2.398438 1.609375 -2.984375 Z M 1.609375 -2.984375 "/></g></g></g><g fill="#52694e" fill-opacity="1"><g transform="translate(104.316277, 216.902381)"><g><path d="M 4.96875 -19.734375 C 7.25 -21.828125 10.316406 -22.875 14.171875 -22.875 C 18.023438 -22.875 21.085938 -21.828125 23.359375 -19.734375 C 25.640625 -17.640625 26.78125 -14.796875 26.78125 -11.203125 C 26.78125 -7.617188 25.640625 -4.78125 23.359375 -2.6875 C 21.085938 -0.59375 18.023438 0.453125 14.171875 0.453125 C 10.316406 0.453125 7.25 -0.59375 4.96875 -2.6875 C 2.695312 -4.78125 1.5625 -7.617188 1.5625 -11.203125 C 1.5625 -14.796875 2.695312 -17.640625 4.96875 -19.734375 Z M 8.796875 -3.65625 C 10.109375 -1.8125 11.894531 -0.890625 14.15625 -0.890625 C 16.414062 -0.890625 18.207031 -1.8125 19.53125 -3.65625 C 20.863281 -5.507812 21.53125 -8.023438 21.53125 -11.203125 C 21.53125 -14.390625 20.863281 -16.90625 19.53125 -18.75 C 18.207031 -20.601562 16.414062 -21.53125 14.15625 -21.53125 C 11.894531 -21.53125 10.109375 -20.601562 8.796875 -18.75 C 7.484375 -16.90625 6.828125 -14.390625 6.828125 -11.203125 C 6.828125 -8.023438 7.484375 -5.507812 8.796875 -3.65625 Z M 8.796875 -3.65625 "/></g></g></g><g fill="#52694e" fill-opacity="1"><g transform="translate(132.916359, 216.902381)"><g><path d="M 1.765625 -0.328125 C 2.316406 -0.328125 2.789062 -0.519531 3.1875 -0.90625 C 3.582031 -1.300781 3.789062 -1.78125 3.8125 -2.34375 L 3.8125 -20.078125 C 3.789062 -20.640625 3.582031 -21.117188 3.1875 -21.515625 C 2.789062 -21.910156 2.316406 -22.109375 1.765625 -22.109375 L 1.34375 -22.109375 L 1.34375 -22.421875 L 11.078125 -22.421875 L 11.046875 -22.109375 L 10.671875 -22.109375 C 10.109375 -22.109375 9.625 -21.910156 9.21875 -21.515625 C 8.8125 -21.117188 8.609375 -20.640625 8.609375 -20.078125 L 8.609375 -1.375 L 12.8125 -1.375 C 14.375 -1.375 15.679688 -1.820312 16.734375 -2.71875 C 17.796875 -3.613281 18.582031 -4.882812 19.09375 -6.53125 L 19.40625 -6.53125 L 17.9375 0 L 1.34375 0 L 1.34375 -0.328125 Z M 1.765625 -0.328125 "/></g></g></g><g fill="#52694e" fill-opacity="1"><g transform="translate(153.125409, 216.902381)"><g><path d="M 25.3125 -22.109375 L 24.765625 -22.109375 C 24.316406 -22.109375 23.929688 -21.960938 23.609375 -21.671875 C 23.285156 -21.378906 23.113281 -21.019531 23.09375 -20.59375 L 23.09375 -8.109375 C 23.09375 -5.484375 22.269531 -3.398438 20.625 -1.859375 C 18.976562 -0.316406 16.726562 0.453125 13.875 0.453125 C 10.5 0.453125 7.910156 -0.296875 6.109375 -1.796875 C 4.316406 -3.304688 3.421875 -5.398438 3.421875 -8.078125 L 3.421875 -20.5 C 3.398438 -21.144531 3.113281 -21.613281 2.5625 -21.90625 C 2.300781 -22.039062 2.023438 -22.109375 1.734375 -22.109375 L 1.21875 -22.109375 L 1.21875 -22.421875 L 10.4375 -22.421875 L 10.4375 -22.109375 L 9.9375 -22.109375 C 9.457031 -22.109375 9.054688 -21.960938 8.734375 -21.671875 C 8.421875 -21.378906 8.253906 -21.007812 8.234375 -20.5625 L 8.234375 -8.328125 C 8.234375 -6.066406 8.785156 -4.273438 9.890625 -2.953125 C 11.003906 -1.628906 12.53125 -0.96875 14.46875 -0.96875 C 16.414062 -0.96875 17.953125 -1.585938 19.078125 -2.828125 C 20.210938 -4.078125 20.796875 -5.769531 20.828125 -7.90625 L 20.828125 -20.5625 C 20.773438 -21.1875 20.484375 -21.632812 19.953125 -21.90625 C 19.703125 -22.039062 19.425781 -22.109375 19.125 -22.109375 L 18.609375 -22.109375 L 18.609375 -22.421875 L 25.3125 -22.421875 Z M 25.3125 -22.109375 "/></g></g></g><g fill="#52694e" fill-opacity="1"><g transform="translate(179.899966, 216.902381)"><g><path d="M 13.09375 -21.109375 L 13.09375 -2.3125 C 13.125 -1.75 13.332031 -1.273438 13.71875 -0.890625 C 14.113281 -0.515625 14.59375 -0.328125 15.15625 -0.328125 L 15.53125 -0.328125 L 15.5625 0 L 5.828125 0 L 5.828125 -0.328125 L 6.25 -0.328125 C 6.78125 -0.328125 7.242188 -0.515625 7.640625 -0.890625 C 8.035156 -1.273438 8.253906 -1.738281 8.296875 -2.28125 L 8.296875 -21.109375 L 3.96875 -21.109375 C 2.988281 -21.085938 2.207031 -20.773438 1.625 -20.171875 C 1.050781 -19.578125 0.765625 -18.800781 0.765625 -17.84375 L 0.765625 -17.453125 L 0.453125 -17.453125 L 0.453125 -23.03125 C 1.328125 -22.664062 2.585938 -22.472656 4.234375 -22.453125 L 17.140625 -22.453125 C 17.796875 -22.453125 18.515625 -22.515625 19.296875 -22.640625 C 20.078125 -22.773438 20.617188 -22.90625 20.921875 -23.03125 L 20.921875 -17.453125 L 20.59375 -17.453125 L 20.59375 -17.84375 C 20.59375 -19.164062 20.09375 -20.101562 19.09375 -20.65625 C 18.625 -20.9375 18.054688 -21.085938 17.390625 -21.109375 Z M 13.09375 -21.109375 "/></g></g></g><g fill="#52694e" fill-opacity="1"><g transform="translate(201.710365, 216.902381)"><g><path d="M 1.765625 -0.328125 C 2.316406 -0.328125 2.789062 -0.519531 3.1875 -0.90625 C 3.582031 -1.300781 3.789062 -1.78125 3.8125 -2.34375 L 3.8125 -20.109375 C 3.789062 -20.671875 3.582031 -21.144531 3.1875 -21.53125 C 2.789062 -21.914062 2.316406 -22.109375 1.765625 -22.109375 L 1.34375 -22.109375 L 1.34375 -22.421875 L 11.078125 -22.421875 L 11.046875 -22.109375 L 10.671875 -22.109375 C 10.109375 -22.109375 9.625 -21.914062 9.21875 -21.53125 C 8.8125 -21.144531 8.609375 -20.671875 8.609375 -20.109375 L 8.609375 -2.34375 C 8.609375 -1.78125 8.8125 -1.300781 9.21875 -0.90625 C 9.625 -0.519531 10.109375 -0.328125 10.671875 -0.328125 L 11.046875 -0.328125 L 11.078125 0 L 1.34375 0 L 1.34375 -0.328125 Z M 1.765625 -0.328125 "/></g></g></g><g fill="#52694e" fill-opacity="1"><g transform="translate(214.553258, 216.902381)"><g><path d="M 4.96875 -19.734375 C 7.25 -21.828125 10.316406 -22.875 14.171875 -22.875 C 18.023438 -22.875 21.085938 -21.828125 23.359375 -19.734375 C 25.640625 -17.640625 26.78125 -14.796875 26.78125 -11.203125 C 26.78125 -7.617188 25.640625 -4.78125 23.359375 -2.6875 C 21.085938 -0.59375 18.023438 0.453125 14.171875 0.453125 C 10.316406 0.453125 7.25 -0.59375 4.96875 -2.6875 C 2.695312 -4.78125 1.5625 -7.617188 1.5625 -11.203125 C 1.5625 -14.796875 2.695312 -17.640625 4.96875 -19.734375 Z M 8.796875 -3.65625 C 10.109375 -1.8125 11.894531 -0.890625 14.15625 -0.890625 C 16.414062 -0.890625 18.207031 -1.8125 19.53125 -3.65625 C 20.863281 -5.507812 21.53125 -8.023438 21.53125 -11.203125 C 21.53125 -14.390625 20.863281 -16.90625 19.53125 -18.75 C 18.207031 -20.601562 16.414062 -21.53125 14.15625 -21.53125 C 11.894531 -21.53125 10.109375 -20.601562 8.796875 -18.75 C 7.484375 -16.90625 6.828125 -14.390625 6.828125 -11.203125 C 6.828125 -8.023438 7.484375 -5.507812 8.796875 -3.65625 Z M 8.796875 -3.65625 "/></g></g></g><g fill="#52694e" fill-opacity="1"><g transform="translate(243.153343, 216.902381)"><g><path d="M 26.171875 -22.109375 C 25.421875 -22.109375 24.851562 -21.785156 24.46875 -21.140625 C 24.300781 -20.859375 24.207031 -20.539062 24.1875 -20.1875 L 24.1875 -3.65625 C 24.1875 -2.21875 24.28125 -1.007812 24.46875 -0.03125 L 24.5625 0.453125 L 24.28125 0.453125 L 8.109375 -14.953125 L 8.109375 -2.25 C 8.109375 -1.707031 8.296875 -1.25 8.671875 -0.875 C 9.054688 -0.507812 9.519531 -0.328125 10.0625 -0.328125 L 10.671875 -0.328125 L 10.671875 0 L 0.96875 0 L 0.96875 -0.328125 L 1.53125 -0.328125 C 2.09375 -0.328125 2.566406 -0.507812 2.953125 -0.875 C 3.335938 -1.25 3.53125 -1.71875 3.53125 -2.28125 L 3.53125 -18.90625 C 3.53125 -20.3125 3.429688 -21.484375 3.234375 -22.421875 L 3.171875 -22.90625 L 3.453125 -22.90625 L 19.640625 -7.5 L 19.640625 -20.140625 C 19.617188 -20.703125 19.414062 -21.171875 19.03125 -21.546875 C 18.644531 -21.921875 18.1875 -22.109375 17.65625 -22.109375 L 17.078125 -22.109375 L 17.078125 -22.421875 L 26.78125 -22.421875 L 26.78125 -22.109375 Z M 26.171875 -22.109375 "/></g></g></g><g fill="#52694e" fill-opacity="1"><g transform="translate(271.337078, 216.902381)"><g><path d="M 1.609375 -2.984375 C 1.609375 -4.515625 1.9375 -5.828125 2.59375 -6.921875 L 2.890625 -6.921875 C 2.859375 -6.742188 2.84375 -6.570312 2.84375 -6.40625 C 2.84375 -4.9375 3.367188 -3.648438 4.421875 -2.546875 C 5.484375 -1.441406 6.9375 -0.890625 8.78125 -0.890625 C 10.207031 -0.890625 11.320312 -1.234375 12.125 -1.921875 C 12.925781 -2.609375 13.328125 -3.472656 13.328125 -4.515625 C 13.328125 -5.140625 13.128906 -5.695312 12.734375 -6.1875 C 12.335938 -6.675781 11.679688 -7.21875 10.765625 -7.8125 L 5.1875 -11.5 C 3.113281 -12.882812 2.078125 -14.59375 2.078125 -16.625 C 2.078125 -16.832031 2.097656 -17.046875 2.140625 -17.265625 C 2.273438 -18.953125 2.929688 -20.304688 4.109375 -21.328125 C 5.296875 -22.359375 6.882812 -22.875 8.875 -22.875 C 10.050781 -22.875 11.503906 -22.765625 13.234375 -22.546875 L 15.25 -22.546875 L 14.828125 -17.84375 L 14.515625 -17.84375 C 14.515625 -18.945312 14.101562 -19.835938 13.28125 -20.515625 C 12.457031 -21.191406 11.363281 -21.53125 10 -21.53125 C 8.332031 -21.53125 7.125 -21.015625 6.375 -19.984375 C 5.988281 -19.492188 5.796875 -19.003906 5.796875 -18.515625 C 5.796875 -18.023438 5.894531 -17.609375 6.09375 -17.265625 C 6.382812 -16.710938 7.035156 -16.113281 8.046875 -15.46875 L 14.15625 -11.5 C 16.082031 -10.238281 17.046875 -8.59375 17.046875 -6.5625 C 17.046875 -4.300781 16.269531 -2.566406 14.71875 -1.359375 C 13.164062 -0.148438 11.109375 0.453125 8.546875 0.453125 C 7.097656 0.453125 5.757812 0.273438 4.53125 -0.078125 C 3.300781 -0.429688 2.398438 -0.90625 1.828125 -1.5 C 1.679688 -1.90625 1.609375 -2.398438 1.609375 -2.984375 Z M 1.609375 -2.984375 "/></g></g></g></svg>