<svg xmlns="http://www.w3.org/2000/svg" xmlns:xlink="http://www.w3.org/1999/xlink" width="100" zoomAndPan="magnify" viewBox="0 0 75 52.499999" height="70" preserveAspectRatio="xMidYMid meet" version="1.0"><defs><g/><clipPath id="9546db6506"><path d="M 17.34375 3.117188 L 54 3.117188 L 54 18.472656 L 17.34375 18.472656 Z M 17.34375 3.117188 " clip-rule="nonzero"/></clipPath><clipPath id="114d99b5a0"><path d="M 28 7 L 57.269531 7 L 57.269531 18.472656 L 28 18.472656 Z M 28 7 " clip-rule="nonzero"/></clipPath><clipPath id="534a8cb338"><path d="M 17.34375 33.566406 L 54 33.566406 L 54 48.886719 L 17.34375 48.886719 Z M 17.34375 33.566406 " clip-rule="nonzero"/></clipPath><clipPath id="499ceef596"><path d="M 28 33.566406 L 57.269531 33.566406 L 57.269531 45 L 28 45 Z M 28 33.566406 " clip-rule="nonzero"/></clipPath><clipPath id="045fd67ea3"><path d="M 68 19 L 74.644531 19 L 74.644531 27 L 68 27 Z M 68 19 " clip-rule="nonzero"/></clipPath></defs><g clip-path="url(#9546db6506)"><path fill="#52694e" d="M 40.496094 42.089844 C 30.285156 42.089844 22.007812 33.8125 22.007812 23.601562 C 22.007812 13.390625 30.285156 5.113281 40.496094 5.113281 C 45.78125 5.113281 50.550781 7.335938 53.921875 10.890625 C 50.167969 6.15625 44.367188 3.117188 37.855469 3.117188 C 26.539062 3.117188 17.367188 12.289062 17.367188 23.601562 C 17.367188 34.914062 26.539062 44.085938 37.855469 44.085938 C 44.367188 44.085938 50.167969 41.046875 53.921875 36.3125 C 50.550781 39.871094 45.78125 42.089844 40.496094 42.089844 " fill-opacity="1" fill-rule="nonzero"/></g><g clip-path="url(#114d99b5a0)"><path fill="#9e7f5f" d="M 41.035156 7.011719 C 35.976562 7.011719 31.449219 9.277344 28.40625 12.847656 C 31.371094 10.070312 35.355469 8.371094 39.738281 8.371094 C 48.898438 8.371094 56.328125 15.800781 56.328125 24.960938 C 56.328125 29.066406 54.835938 32.820312 52.367188 35.714844 C 55.601562 32.6875 57.625 28.382812 57.625 23.601562 C 57.625 14.441406 50.199219 7.011719 41.035156 7.011719 " fill-opacity="1" fill-rule="nonzero"/></g><g clip-path="url(#534a8cb338)"><path fill="#9e7f5f" d="M 40.496094 9.914062 C 30.285156 9.914062 22.007812 18.191406 22.007812 28.402344 C 22.007812 38.613281 30.285156 46.890625 40.496094 46.890625 C 45.78125 46.890625 50.550781 44.667969 53.921875 41.113281 C 50.167969 45.847656 44.367188 48.886719 37.855469 48.886719 C 26.539062 48.886719 17.367188 39.714844 17.367188 28.402344 C 17.367188 17.089844 26.539062 7.917969 37.855469 7.917969 C 44.367188 7.917969 50.167969 10.957031 53.921875 15.691406 C 50.550781 12.132812 45.78125 9.914062 40.496094 9.914062 " fill-opacity="1" fill-rule="nonzero"/></g><g clip-path="url(#499ceef596)"><path fill="#52694e" d="M 41.035156 44.992188 C 35.976562 44.992188 31.449219 42.726562 28.40625 39.15625 C 31.371094 41.933594 35.355469 43.632812 39.738281 43.632812 C 48.898438 43.632812 56.328125 36.207031 56.328125 27.042969 C 56.328125 22.941406 54.835938 19.183594 52.367188 16.289062 C 55.601562 19.316406 57.625 23.621094 57.625 28.402344 C 57.625 37.566406 50.199219 44.992188 41.035156 44.992188 " fill-opacity="1" fill-rule="nonzero"/></g><g fill="#52694e" fill-opacity="1"><g transform="translate(0.667484, 26.645594)"><g><path d="M 4.265625 0.125 C 3.066406 0.125 2.125 -0.175781 1.4375 -0.78125 C 0.757812 -1.382812 0.421875 -2.207031 0.421875 -3.25 C 0.421875 -4.300781 0.757812 -5.128906 1.4375 -5.734375 C 2.113281 -6.347656 3.039062 -6.65625 4.21875 -6.65625 C 5.113281 -6.65625 5.882812 -6.484375 6.53125 -6.140625 L 6.5625 -4.546875 L 6.484375 -4.546875 C 6.160156 -5.691406 5.4375 -6.265625 4.3125 -6.265625 C 3.582031 -6.265625 3.003906 -6 2.578125 -5.46875 C 2.148438 -4.9375 1.9375 -4.207031 1.9375 -3.28125 C 1.9375 -2.363281 2.140625 -1.632812 2.546875 -1.09375 C 2.953125 -0.550781 3.503906 -0.273438 4.203125 -0.265625 C 4.921875 -0.265625 5.46875 -0.441406 5.84375 -0.796875 C 6.226562 -1.171875 6.5 -1.8125 6.65625 -2.71875 L 6.71875 -2.71875 L 6.8125 -1.125 C 6.3125 -0.289062 5.460938 0.125 4.265625 0.125 Z M 4.265625 0.125 "/></g></g></g><g fill="#52694e" fill-opacity="1"><g transform="translate(8.074976, 26.645594)"><g><path d="M 6.875 -0.09375 L 6.96875 -0.09375 L 6.96875 0 L 3.984375 0 L 3.984375 -0.09375 L 4.078125 -0.09375 C 4.210938 -0.09375 4.3125 -0.132812 4.375 -0.21875 C 4.4375 -0.300781 4.46875 -0.378906 4.46875 -0.453125 C 4.46875 -0.523438 4.457031 -0.601562 4.4375 -0.6875 L 3.96875 -1.828125 L 1.796875 -1.828125 L 1.3125 -0.6875 C 1.28125 -0.601562 1.265625 -0.523438 1.265625 -0.453125 C 1.265625 -0.378906 1.296875 -0.300781 1.359375 -0.21875 C 1.429688 -0.132812 1.535156 -0.09375 1.671875 -0.09375 L 1.75 -0.09375 L 1.75 0 L -0.25 0 L -0.25 -0.09375 L -0.15625 -0.09375 C -0.0195312 -0.09375 0.117188 -0.132812 0.265625 -0.21875 C 0.410156 -0.3125 0.53125 -0.441406 0.625 -0.609375 L 2.765625 -5.484375 C 3.054688 -6.097656 3.210938 -6.503906 3.234375 -6.703125 L 3.328125 -6.703125 L 6.09375 -0.640625 C 6.1875 -0.453125 6.300781 -0.3125 6.4375 -0.21875 C 6.582031 -0.132812 6.726562 -0.09375 6.875 -0.09375 Z M 1.953125 -2.21875 L 3.8125 -2.21875 L 2.90625 -4.5 Z M 1.953125 -2.21875 "/></g></g></g><g fill="#52694e" fill-opacity="1"><g transform="translate(14.886144, 26.645594)"><g><path d="M 2.96875 -6.109375 L 2.5625 -6.109375 C 2.550781 -6.109375 2.539062 -6.109375 2.53125 -6.109375 L 2.53125 -0.6875 C 2.539062 -0.519531 2.601562 -0.378906 2.71875 -0.265625 C 2.832031 -0.148438 2.96875 -0.09375 3.125 -0.09375 L 3.25 -0.09375 L 3.25 0 L 0.421875 0 L 0.421875 -0.09375 L 0.546875 -0.09375 C 0.765625 -0.09375 0.929688 -0.1875 1.046875 -0.375 C 1.097656 -0.46875 1.128906 -0.566406 1.140625 -0.671875 L 1.140625 -5.84375 C 1.128906 -6 1.066406 -6.132812 0.953125 -6.25 C 0.835938 -6.363281 0.703125 -6.421875 0.546875 -6.421875 L 0.421875 -6.421875 L 0.421875 -6.515625 L 3.609375 -6.515625 C 4.210938 -6.515625 4.722656 -6.382812 5.140625 -6.125 C 5.347656 -6 5.515625 -5.816406 5.640625 -5.578125 C 5.765625 -5.347656 5.828125 -5.046875 5.828125 -4.671875 C 5.828125 -4.296875 5.695312 -3.929688 5.4375 -3.578125 C 5.175781 -3.234375 4.796875 -3.035156 4.296875 -2.984375 C 4.660156 -2.867188 4.976562 -2.597656 5.25 -2.171875 C 5.925781 -1.097656 6.421875 -0.457031 6.734375 -0.25 C 6.898438 -0.15625 7.101562 -0.101562 7.34375 -0.09375 L 7.34375 0 L 6.4375 0 C 5.894531 0 5.441406 -0.0664062 5.078125 -0.203125 C 4.722656 -0.347656 4.445312 -0.601562 4.25 -0.96875 C 4.125 -1.175781 3.863281 -1.707031 3.46875 -2.5625 C 3.300781 -2.9375 3.09375 -3.144531 2.84375 -3.1875 L 2.84375 -3.28125 L 3.125 -3.28125 C 3.40625 -3.28125 3.648438 -3.363281 3.859375 -3.53125 C 4.078125 -3.695312 4.222656 -3.96875 4.296875 -4.34375 C 4.328125 -4.476562 4.34375 -4.582031 4.34375 -4.65625 C 4.34375 -5.164062 4.238281 -5.53125 4.03125 -5.75 C 3.820312 -5.976562 3.554688 -6.097656 3.234375 -6.109375 C 3.171875 -6.109375 3.082031 -6.109375 2.96875 -6.109375 Z M 2.96875 -6.109375 "/></g></g></g><g fill="#52694e" fill-opacity="1"><g transform="translate(21.986155, 26.645594)"><g><path d="M 0.515625 -0.09375 C 0.671875 -0.09375 0.804688 -0.148438 0.921875 -0.265625 C 1.035156 -0.378906 1.097656 -0.519531 1.109375 -0.6875 L 1.109375 -5.859375 C 1.097656 -6.023438 1.050781 -6.144531 0.96875 -6.21875 C 0.820312 -6.351562 0.671875 -6.421875 0.515625 -6.421875 L 0.390625 -6.421875 L 0.390625 -6.515625 L 3.953125 -6.515625 C 4.265625 -6.515625 4.519531 -6.535156 4.71875 -6.578125 C 4.914062 -6.628906 5.035156 -6.664062 5.078125 -6.6875 L 5.078125 -5.0625 L 4.984375 -5.0625 L 4.984375 -5.171875 C 4.984375 -5.554688 4.835938 -5.828125 4.546875 -5.984375 C 4.410156 -6.066406 4.25 -6.113281 4.0625 -6.125 L 2.5 -6.125 L 2.5 -3.40625 L 3.734375 -3.40625 C 3.960938 -3.414062 4.148438 -3.492188 4.296875 -3.640625 C 4.453125 -3.796875 4.53125 -3.984375 4.53125 -4.203125 L 4.53125 -4.296875 L 4.625 -4.296875 L 4.625 -2.140625 L 4.53125 -2.140625 L 4.53125 -2.21875 C 4.53125 -2.445312 4.457031 -2.632812 4.3125 -2.78125 C 4.164062 -2.9375 3.976562 -3.015625 3.75 -3.015625 L 2.5 -3.015625 L 2.5 -0.40625 L 3.71875 -0.40625 C 4.175781 -0.40625 4.554688 -0.535156 4.859375 -0.796875 C 5.171875 -1.054688 5.398438 -1.425781 5.546875 -1.90625 L 5.640625 -1.90625 L 5.21875 0 L 0.390625 0 L 0.390625 -0.09375 Z M 0.515625 -0.09375 "/></g></g></g><g fill="#52694e" fill-opacity="1"><g transform="translate(28.005328, 26.645594)"><g><path d="M 0.515625 -0.09375 C 0.671875 -0.09375 0.804688 -0.148438 0.921875 -0.265625 C 1.035156 -0.378906 1.097656 -0.519531 1.109375 -0.6875 L 1.109375 -5.859375 C 1.097656 -6.023438 1.050781 -6.144531 0.96875 -6.21875 C 0.820312 -6.351562 0.671875 -6.421875 0.515625 -6.421875 L 0.390625 -6.421875 L 0.390625 -6.515625 L 3.953125 -6.515625 C 4.265625 -6.515625 4.519531 -6.535156 4.71875 -6.578125 C 4.914062 -6.628906 5.035156 -6.664062 5.078125 -6.6875 L 5.078125 -5.0625 L 4.984375 -5.0625 L 4.984375 -5.171875 C 4.984375 -5.554688 4.835938 -5.828125 4.546875 -5.984375 C 4.410156 -6.066406 4.25 -6.113281 4.0625 -6.125 L 2.5 -6.125 L 2.5 -3.40625 L 3.734375 -3.40625 C 3.960938 -3.414062 4.148438 -3.492188 4.296875 -3.640625 C 4.453125 -3.796875 4.53125 -3.984375 4.53125 -4.203125 L 4.53125 -4.296875 L 4.625 -4.296875 L 4.625 -2.140625 L 4.53125 -2.140625 L 4.53125 -2.21875 C 4.53125 -2.445312 4.457031 -2.632812 4.3125 -2.78125 C 4.164062 -2.9375 3.976562 -3.015625 3.75 -3.015625 L 2.5 -3.015625 L 2.5 -0.40625 L 3.71875 -0.40625 C 4.175781 -0.40625 4.554688 -0.535156 4.859375 -0.796875 C 5.171875 -1.054688 5.398438 -1.425781 5.546875 -1.90625 L 5.640625 -1.90625 L 5.21875 0 L 0.390625 0 L 0.390625 -0.09375 Z M 0.515625 -0.09375 "/></g></g></g><g fill="#52694e" fill-opacity="1"><g transform="translate(34.024501, 26.645594)"><g><path d="M 2.96875 -6.109375 L 2.5625 -6.109375 C 2.550781 -6.109375 2.539062 -6.109375 2.53125 -6.109375 L 2.53125 -0.6875 C 2.539062 -0.519531 2.601562 -0.378906 2.71875 -0.265625 C 2.832031 -0.148438 2.96875 -0.09375 3.125 -0.09375 L 3.25 -0.09375 L 3.25 0 L 0.421875 0 L 0.421875 -0.09375 L 0.546875 -0.09375 C 0.765625 -0.09375 0.929688 -0.1875 1.046875 -0.375 C 1.097656 -0.46875 1.128906 -0.566406 1.140625 -0.671875 L 1.140625 -5.84375 C 1.128906 -6 1.066406 -6.132812 0.953125 -6.25 C 0.835938 -6.363281 0.703125 -6.421875 0.546875 -6.421875 L 0.421875 -6.421875 L 0.421875 -6.515625 L 3.609375 -6.515625 C 4.210938 -6.515625 4.722656 -6.382812 5.140625 -6.125 C 5.347656 -6 5.515625 -5.816406 5.640625 -5.578125 C 5.765625 -5.347656 5.828125 -5.046875 5.828125 -4.671875 C 5.828125 -4.296875 5.695312 -3.929688 5.4375 -3.578125 C 5.175781 -3.234375 4.796875 -3.035156 4.296875 -2.984375 C 4.660156 -2.867188 4.976562 -2.597656 5.25 -2.171875 C 5.925781 -1.097656 6.421875 -0.457031 6.734375 -0.25 C 6.898438 -0.15625 7.101562 -0.101562 7.34375 -0.09375 L 7.34375 0 L 6.4375 0 C 5.894531 0 5.441406 -0.0664062 5.078125 -0.203125 C 4.722656 -0.347656 4.445312 -0.601562 4.25 -0.96875 C 4.125 -1.175781 3.863281 -1.707031 3.46875 -2.5625 C 3.300781 -2.9375 3.09375 -3.144531 2.84375 -3.1875 L 2.84375 -3.28125 L 3.125 -3.28125 C 3.40625 -3.28125 3.648438 -3.363281 3.859375 -3.53125 C 4.078125 -3.695312 4.222656 -3.96875 4.296875 -4.34375 C 4.328125 -4.476562 4.34375 -4.582031 4.34375 -4.65625 C 4.34375 -5.164062 4.238281 -5.53125 4.03125 -5.75 C 3.820312 -5.976562 3.554688 -6.097656 3.234375 -6.109375 C 3.171875 -6.109375 3.082031 -6.109375 2.96875 -6.109375 Z M 2.96875 -6.109375 "/></g></g></g><g fill="#52694e" fill-opacity="1"><g transform="translate(41.124513, 26.645594)"><g><path d="M 4.265625 0.125 C 3.066406 0.125 2.125 -0.175781 1.4375 -0.78125 C 0.757812 -1.382812 0.421875 -2.207031 0.421875 -3.25 C 0.421875 -4.300781 0.757812 -5.128906 1.4375 -5.734375 C 2.113281 -6.347656 3.039062 -6.65625 4.21875 -6.65625 C 5.113281 -6.65625 5.882812 -6.484375 6.53125 -6.140625 L 6.5625 -4.546875 L 6.484375 -4.546875 C 6.160156 -5.691406 5.4375 -6.265625 4.3125 -6.265625 C 3.582031 -6.265625 3.003906 -6 2.578125 -5.46875 C 2.148438 -4.9375 1.9375 -4.207031 1.9375 -3.28125 C 1.9375 -2.363281 2.140625 -1.632812 2.546875 -1.09375 C 2.953125 -0.550781 3.503906 -0.273438 4.203125 -0.265625 C 4.921875 -0.265625 5.46875 -0.441406 5.84375 -0.796875 C 6.226562 -1.171875 6.5 -1.8125 6.65625 -2.71875 L 6.71875 -2.71875 L 6.8125 -1.125 C 6.3125 -0.289062 5.460938 0.125 4.265625 0.125 Z M 4.265625 0.125 "/></g></g></g><g fill="#52694e" fill-opacity="1"><g transform="translate(48.532004, 26.645594)"><g><path d="M 2.96875 -6.109375 L 2.5625 -6.109375 C 2.550781 -6.109375 2.539062 -6.109375 2.53125 -6.109375 L 2.53125 -0.6875 C 2.539062 -0.519531 2.601562 -0.378906 2.71875 -0.265625 C 2.832031 -0.148438 2.96875 -0.09375 3.125 -0.09375 L 3.25 -0.09375 L 3.25 0 L 0.421875 0 L 0.421875 -0.09375 L 0.546875 -0.09375 C 0.765625 -0.09375 0.929688 -0.1875 1.046875 -0.375 C 1.097656 -0.46875 1.128906 -0.566406 1.140625 -0.671875 L 1.140625 -5.84375 C 1.128906 -6 1.066406 -6.132812 0.953125 -6.25 C 0.835938 -6.363281 0.703125 -6.421875 0.546875 -6.421875 L 0.421875 -6.421875 L 0.421875 -6.515625 L 3.609375 -6.515625 C 4.210938 -6.515625 4.722656 -6.382812 5.140625 -6.125 C 5.347656 -6 5.515625 -5.816406 5.640625 -5.578125 C 5.765625 -5.347656 5.828125 -5.046875 5.828125 -4.671875 C 5.828125 -4.296875 5.695312 -3.929688 5.4375 -3.578125 C 5.175781 -3.234375 4.796875 -3.035156 4.296875 -2.984375 C 4.660156 -2.867188 4.976562 -2.597656 5.25 -2.171875 C 5.925781 -1.097656 6.421875 -0.457031 6.734375 -0.25 C 6.898438 -0.15625 7.101562 -0.101562 7.34375 -0.09375 L 7.34375 0 L 6.4375 0 C 5.894531 0 5.441406 -0.0664062 5.078125 -0.203125 C 4.722656 -0.347656 4.445312 -0.601562 4.25 -0.96875 C 4.125 -1.175781 3.863281 -1.707031 3.46875 -2.5625 C 3.300781 -2.9375 3.09375 -3.144531 2.84375 -3.1875 L 2.84375 -3.28125 L 3.125 -3.28125 C 3.40625 -3.28125 3.648438 -3.363281 3.859375 -3.53125 C 4.078125 -3.695312 4.222656 -3.96875 4.296875 -4.34375 C 4.328125 -4.476562 4.34375 -4.582031 4.34375 -4.65625 C 4.34375 -5.164062 4.238281 -5.53125 4.03125 -5.75 C 3.820312 -5.976562 3.554688 -6.097656 3.234375 -6.109375 C 3.171875 -6.109375 3.082031 -6.109375 2.96875 -6.109375 Z M 2.96875 -6.109375 "/></g></g></g><g fill="#52694e" fill-opacity="1"><g transform="translate(55.632014, 26.645594)"><g><path d="M 6.875 -0.09375 L 6.96875 -0.09375 L 6.96875 0 L 3.984375 0 L 3.984375 -0.09375 L 4.078125 -0.09375 C 4.210938 -0.09375 4.3125 -0.132812 4.375 -0.21875 C 4.4375 -0.300781 4.46875 -0.378906 4.46875 -0.453125 C 4.46875 -0.523438 4.457031 -0.601562 4.4375 -0.6875 L 3.96875 -1.828125 L 1.796875 -1.828125 L 1.3125 -0.6875 C 1.28125 -0.601562 1.265625 -0.523438 1.265625 -0.453125 C 1.265625 -0.378906 1.296875 -0.300781 1.359375 -0.21875 C 1.429688 -0.132812 1.535156 -0.09375 1.671875 -0.09375 L 1.75 -0.09375 L 1.75 0 L -0.25 0 L -0.25 -0.09375 L -0.15625 -0.09375 C -0.0195312 -0.09375 0.117188 -0.132812 0.265625 -0.21875 C 0.410156 -0.3125 0.53125 -0.441406 0.625 -0.609375 L 2.765625 -5.484375 C 3.054688 -6.097656 3.210938 -6.503906 3.234375 -6.703125 L 3.328125 -6.703125 L 6.09375 -0.640625 C 6.1875 -0.453125 6.300781 -0.3125 6.4375 -0.21875 C 6.582031 -0.132812 6.726562 -0.09375 6.875 -0.09375 Z M 1.953125 -2.21875 L 3.8125 -2.21875 L 2.90625 -4.5 Z M 1.953125 -2.21875 "/></g></g></g><g fill="#52694e" fill-opacity="1"><g transform="translate(62.443181, 26.645594)"><g><path d="M 2.5 -6.125 L 2.5 -3.40625 L 3.734375 -3.40625 C 3.960938 -3.414062 4.148438 -3.492188 4.296875 -3.640625 C 4.453125 -3.785156 4.53125 -3.972656 4.53125 -4.203125 L 4.53125 -4.296875 L 4.625 -4.296875 L 4.625 -2.140625 L 4.53125 -2.140625 L 4.53125 -2.21875 C 4.53125 -2.445312 4.457031 -2.632812 4.3125 -2.78125 C 4.164062 -2.9375 3.976562 -3.015625 3.75 -3.015625 L 2.5 -3.015625 L 2.5 -0.6875 C 2.5 -0.519531 2.554688 -0.378906 2.671875 -0.265625 C 2.796875 -0.148438 2.9375 -0.09375 3.09375 -0.09375 L 3.21875 -0.09375 L 3.21875 0 L 0.390625 0 L 0.390625 -0.09375 L 0.515625 -0.09375 C 0.671875 -0.09375 0.804688 -0.148438 0.921875 -0.265625 C 1.035156 -0.378906 1.097656 -0.519531 1.109375 -0.6875 L 1.109375 -5.859375 C 1.109375 -6.078125 1.003906 -6.238281 0.796875 -6.34375 C 0.710938 -6.394531 0.617188 -6.421875 0.515625 -6.421875 L 0.390625 -6.421875 L 0.390625 -6.515625 L 3.953125 -6.515625 C 4.148438 -6.515625 4.363281 -6.53125 4.59375 -6.5625 C 4.820312 -6.601562 4.984375 -6.644531 5.078125 -6.6875 L 5.078125 -5.109375 L 4.984375 -5.109375 L 4.984375 -5.203125 C 4.984375 -5.472656 4.898438 -5.691406 4.734375 -5.859375 C 4.578125 -6.023438 4.363281 -6.113281 4.09375 -6.125 Z M 2.5 -6.125 "/></g></g></g><g clip-path="url(#045fd67ea3)"><g fill="#52694e" fill-opacity="1"><g transform="translate(68.126923, 26.645594)"><g><path d="M 3.8125 -6.140625 L 3.8125 -0.671875 C 3.8125 -0.503906 3.867188 -0.363281 3.984375 -0.25 C 4.097656 -0.144531 4.238281 -0.09375 4.40625 -0.09375 L 4.515625 -0.09375 L 4.53125 0 L 1.6875 0 L 1.6875 -0.09375 L 1.8125 -0.09375 C 1.96875 -0.09375 2.101562 -0.144531 2.21875 -0.25 C 2.332031 -0.363281 2.394531 -0.5 2.40625 -0.65625 L 2.40625 -6.140625 L 1.15625 -6.140625 C 0.863281 -6.128906 0.632812 -6.035156 0.46875 -5.859375 C 0.300781 -5.691406 0.21875 -5.46875 0.21875 -5.1875 L 0.21875 -5.078125 L 0.125 -5.078125 L 0.125 -6.703125 C 0.382812 -6.585938 0.753906 -6.53125 1.234375 -6.53125 L 4.984375 -6.53125 C 5.171875 -6.53125 5.378906 -6.546875 5.609375 -6.578125 C 5.835938 -6.617188 5.992188 -6.660156 6.078125 -6.703125 L 6.078125 -5.078125 L 5.984375 -5.078125 L 5.984375 -5.1875 C 5.984375 -5.570312 5.835938 -5.84375 5.546875 -6 C 5.410156 -6.082031 5.25 -6.128906 5.0625 -6.140625 Z M 3.8125 -6.140625 "/></g></g></g></g><g fill="#52694e" fill-opacity="1"><g transform="translate(16.484707, 32.617375)"><g><path d="M 0.328125 -0.609375 C 0.328125 -0.929688 0.394531 -1.203125 0.53125 -1.421875 L 0.59375 -1.421875 C 0.59375 -1.390625 0.59375 -1.351562 0.59375 -1.3125 C 0.59375 -1.007812 0.695312 -0.742188 0.90625 -0.515625 C 1.125 -0.296875 1.425781 -0.1875 1.8125 -0.1875 C 2.101562 -0.1875 2.332031 -0.253906 2.5 -0.390625 C 2.664062 -0.535156 2.75 -0.71875 2.75 -0.9375 C 2.75 -1.0625 2.707031 -1.171875 2.625 -1.265625 C 2.539062 -1.367188 2.40625 -1.484375 2.21875 -1.609375 L 1.0625 -2.359375 C 0.632812 -2.648438 0.421875 -3.003906 0.421875 -3.421875 C 0.421875 -3.460938 0.425781 -3.503906 0.4375 -3.546875 C 0.46875 -3.898438 0.601562 -4.179688 0.84375 -4.390625 C 1.09375 -4.597656 1.421875 -4.703125 1.828125 -4.703125 C 2.066406 -4.703125 2.363281 -4.679688 2.71875 -4.640625 L 3.140625 -4.640625 L 3.046875 -3.671875 L 2.984375 -3.671875 C 2.984375 -3.898438 2.898438 -4.082031 2.734375 -4.21875 C 2.566406 -4.363281 2.34375 -4.4375 2.0625 -4.4375 C 1.71875 -4.4375 1.46875 -4.328125 1.3125 -4.109375 C 1.226562 -4.015625 1.1875 -3.914062 1.1875 -3.8125 C 1.1875 -3.707031 1.207031 -3.617188 1.25 -3.546875 C 1.3125 -3.429688 1.445312 -3.3125 1.65625 -3.1875 L 2.921875 -2.359375 C 3.316406 -2.109375 3.515625 -1.773438 3.515625 -1.359375 C 3.515625 -0.890625 3.351562 -0.53125 3.03125 -0.28125 C 2.707031 -0.03125 2.285156 0.09375 1.765625 0.09375 C 1.460938 0.09375 1.179688 0.0546875 0.921875 -0.015625 C 0.671875 -0.0859375 0.488281 -0.1875 0.375 -0.3125 C 0.34375 -0.394531 0.328125 -0.492188 0.328125 -0.609375 Z M 0.328125 -0.609375 "/></g></g></g><g fill="#52694e" fill-opacity="1"><g transform="translate(20.391184, 32.617375)"><g><path d="M 1.03125 -4.0625 C 1.5 -4.488281 2.128906 -4.703125 2.921875 -4.703125 C 3.710938 -4.703125 4.34375 -4.488281 4.8125 -4.0625 C 5.28125 -3.632812 5.515625 -3.050781 5.515625 -2.3125 C 5.515625 -1.570312 5.28125 -0.984375 4.8125 -0.546875 C 4.34375 -0.117188 3.710938 0.09375 2.921875 0.09375 C 2.128906 0.09375 1.5 -0.117188 1.03125 -0.546875 C 0.5625 -0.984375 0.328125 -1.570312 0.328125 -2.3125 C 0.328125 -3.050781 0.5625 -3.632812 1.03125 -4.0625 Z M 1.8125 -0.75 C 2.082031 -0.375 2.445312 -0.1875 2.90625 -0.1875 C 3.375 -0.1875 3.742188 -0.375 4.015625 -0.75 C 4.296875 -1.132812 4.4375 -1.65625 4.4375 -2.3125 C 4.4375 -2.96875 4.296875 -3.484375 4.015625 -3.859375 C 3.742188 -4.242188 3.375 -4.4375 2.90625 -4.4375 C 2.445312 -4.4375 2.082031 -4.242188 1.8125 -3.859375 C 1.539062 -3.484375 1.40625 -2.96875 1.40625 -2.3125 C 1.40625 -1.65625 1.539062 -1.132812 1.8125 -0.75 Z M 1.8125 -0.75 "/></g></g></g><g fill="#52694e" fill-opacity="1"><g transform="translate(26.273941, 32.617375)"><g><path d="M 0.359375 -0.0625 C 0.472656 -0.0625 0.570312 -0.101562 0.65625 -0.1875 C 0.738281 -0.269531 0.78125 -0.367188 0.78125 -0.484375 L 0.78125 -4.140625 C 0.78125 -4.253906 0.738281 -4.347656 0.65625 -4.421875 C 0.570312 -4.503906 0.472656 -4.546875 0.359375 -4.546875 L 0.28125 -4.546875 L 0.28125 -4.609375 L 2.28125 -4.609375 L 2.28125 -4.546875 L 2.203125 -4.546875 C 2.085938 -4.546875 1.988281 -4.503906 1.90625 -4.421875 C 1.820312 -4.347656 1.78125 -4.253906 1.78125 -4.140625 L 1.78125 -0.28125 L 2.640625 -0.28125 C 2.960938 -0.28125 3.226562 -0.375 3.4375 -0.5625 C 3.65625 -0.75 3.820312 -1.007812 3.9375 -1.34375 L 4 -1.34375 L 3.6875 0 L 0.28125 0 L 0.28125 -0.0625 Z M 0.359375 -0.0625 "/></g></g></g><g fill="#52694e" fill-opacity="1"><g transform="translate(30.430744, 32.617375)"><g><path d="M 5.203125 -4.546875 L 5.09375 -4.546875 C 5 -4.546875 4.921875 -4.515625 4.859375 -4.453125 C 4.796875 -4.398438 4.757812 -4.328125 4.75 -4.234375 L 4.75 -1.671875 C 4.75 -1.128906 4.578125 -0.695312 4.234375 -0.375 C 3.898438 -0.0625 3.441406 0.09375 2.859375 0.09375 C 2.160156 0.09375 1.625 -0.0625 1.25 -0.375 C 0.882812 -0.6875 0.703125 -1.113281 0.703125 -1.65625 L 0.703125 -4.21875 C 0.703125 -4.351562 0.644531 -4.453125 0.53125 -4.515625 C 0.476562 -4.535156 0.421875 -4.546875 0.359375 -4.546875 L 0.25 -4.546875 L 0.25 -4.609375 L 2.15625 -4.609375 L 2.15625 -4.546875 L 2.046875 -4.546875 C 1.953125 -4.546875 1.867188 -4.515625 1.796875 -4.453125 C 1.734375 -4.398438 1.695312 -4.328125 1.6875 -4.234375 L 1.6875 -1.71875 C 1.6875 -1.25 1.800781 -0.878906 2.03125 -0.609375 C 2.257812 -0.335938 2.570312 -0.203125 2.96875 -0.203125 C 3.375 -0.203125 3.691406 -0.328125 3.921875 -0.578125 C 4.160156 -0.835938 4.28125 -1.1875 4.28125 -1.625 L 4.28125 -4.234375 C 4.269531 -4.359375 4.210938 -4.453125 4.109375 -4.515625 C 4.054688 -4.535156 4 -4.546875 3.9375 -4.546875 L 3.828125 -4.546875 L 3.828125 -4.609375 L 5.203125 -4.609375 Z M 5.203125 -4.546875 "/></g></g></g><g fill="#52694e" fill-opacity="1"><g transform="translate(35.938009, 32.617375)"><g><path d="M 2.703125 -4.34375 L 2.703125 -0.46875 C 2.703125 -0.351562 2.742188 -0.253906 2.828125 -0.171875 C 2.910156 -0.0976562 3.007812 -0.0625 3.125 -0.0625 L 3.203125 -0.0625 L 3.203125 0 L 1.203125 0 L 1.203125 -0.0625 L 1.28125 -0.0625 C 1.394531 -0.0625 1.488281 -0.0976562 1.5625 -0.171875 C 1.644531 -0.253906 1.691406 -0.351562 1.703125 -0.46875 L 1.703125 -4.34375 L 0.8125 -4.34375 C 0.613281 -4.34375 0.453125 -4.28125 0.328125 -4.15625 C 0.210938 -4.03125 0.15625 -3.867188 0.15625 -3.671875 L 0.15625 -3.59375 L 0.09375 -3.59375 L 0.09375 -4.734375 C 0.269531 -4.660156 0.53125 -4.625 0.875 -4.625 L 3.53125 -4.625 C 3.664062 -4.625 3.8125 -4.632812 3.96875 -4.65625 C 4.132812 -4.6875 4.25 -4.710938 4.3125 -4.734375 L 4.3125 -3.59375 L 4.234375 -3.59375 L 4.234375 -3.671875 C 4.234375 -3.941406 4.132812 -4.132812 3.9375 -4.25 C 3.832031 -4.3125 3.710938 -4.34375 3.578125 -4.34375 Z M 2.703125 -4.34375 "/></g></g></g><g fill="#52694e" fill-opacity="1"><g transform="translate(40.424195, 32.617375)"><g><path d="M 0.359375 -0.0625 C 0.472656 -0.0625 0.570312 -0.101562 0.65625 -0.1875 C 0.738281 -0.269531 0.78125 -0.367188 0.78125 -0.484375 L 0.78125 -4.140625 C 0.78125 -4.253906 0.738281 -4.347656 0.65625 -4.421875 C 0.570312 -4.503906 0.472656 -4.546875 0.359375 -4.546875 L 0.28125 -4.546875 L 0.28125 -4.609375 L 2.28125 -4.609375 L 2.28125 -4.546875 L 2.203125 -4.546875 C 2.085938 -4.546875 1.988281 -4.503906 1.90625 -4.421875 C 1.820312 -4.347656 1.78125 -4.253906 1.78125 -4.140625 L 1.78125 -0.484375 C 1.78125 -0.367188 1.820312 -0.269531 1.90625 -0.1875 C 1.988281 -0.101562 2.085938 -0.0625 2.203125 -0.0625 L 2.28125 -0.0625 L 2.28125 0 L 0.28125 0 L 0.28125 -0.0625 Z M 0.359375 -0.0625 "/></g></g></g><g fill="#52694e" fill-opacity="1"><g transform="translate(43.065852, 32.617375)"><g><path d="M 1.03125 -4.0625 C 1.5 -4.488281 2.128906 -4.703125 2.921875 -4.703125 C 3.710938 -4.703125 4.34375 -4.488281 4.8125 -4.0625 C 5.28125 -3.632812 5.515625 -3.050781 5.515625 -2.3125 C 5.515625 -1.570312 5.28125 -0.984375 4.8125 -0.546875 C 4.34375 -0.117188 3.710938 0.09375 2.921875 0.09375 C 2.128906 0.09375 1.5 -0.117188 1.03125 -0.546875 C 0.5625 -0.984375 0.328125 -1.570312 0.328125 -2.3125 C 0.328125 -3.050781 0.5625 -3.632812 1.03125 -4.0625 Z M 1.8125 -0.75 C 2.082031 -0.375 2.445312 -0.1875 2.90625 -0.1875 C 3.375 -0.1875 3.742188 -0.375 4.015625 -0.75 C 4.296875 -1.132812 4.4375 -1.65625 4.4375 -2.3125 C 4.4375 -2.96875 4.296875 -3.484375 4.015625 -3.859375 C 3.742188 -4.242188 3.375 -4.4375 2.90625 -4.4375 C 2.445312 -4.4375 2.082031 -4.242188 1.8125 -3.859375 C 1.539062 -3.484375 1.40625 -2.96875 1.40625 -2.3125 C 1.40625 -1.65625 1.539062 -1.132812 1.8125 -0.75 Z M 1.8125 -0.75 "/></g></g></g><g fill="#52694e" fill-opacity="1"><g transform="translate(48.94861, 32.617375)"><g><path d="M 5.390625 -4.546875 C 5.234375 -4.546875 5.113281 -4.484375 5.03125 -4.359375 C 5 -4.296875 4.984375 -4.226562 4.984375 -4.15625 L 4.984375 -0.75 C 4.984375 -0.457031 5 -0.207031 5.03125 0 L 5.0625 0.09375 L 5 0.09375 L 1.671875 -3.078125 L 1.671875 -0.46875 C 1.671875 -0.351562 1.707031 -0.253906 1.78125 -0.171875 C 1.863281 -0.0976562 1.960938 -0.0625 2.078125 -0.0625 L 2.203125 -0.0625 L 2.203125 0 L 0.203125 0 L 0.203125 -0.0625 L 0.3125 -0.0625 C 0.425781 -0.0625 0.519531 -0.0976562 0.59375 -0.171875 C 0.675781 -0.253906 0.71875 -0.351562 0.71875 -0.46875 L 0.71875 -3.890625 C 0.71875 -4.179688 0.703125 -4.421875 0.671875 -4.609375 L 0.65625 -4.71875 L 0.71875 -4.71875 L 4.046875 -1.546875 L 4.046875 -4.140625 C 4.035156 -4.253906 3.988281 -4.347656 3.90625 -4.421875 C 3.832031 -4.503906 3.742188 -4.546875 3.640625 -4.546875 L 3.515625 -4.546875 L 3.515625 -4.609375 L 5.515625 -4.609375 L 5.515625 -4.546875 Z M 5.390625 -4.546875 "/></g></g></g><g fill="#52694e" fill-opacity="1"><g transform="translate(54.745728, 32.617375)"><g><path d="M 0.328125 -0.609375 C 0.328125 -0.929688 0.394531 -1.203125 0.53125 -1.421875 L 0.59375 -1.421875 C 0.59375 -1.390625 0.59375 -1.351562 0.59375 -1.3125 C 0.59375 -1.007812 0.695312 -0.742188 0.90625 -0.515625 C 1.125 -0.296875 1.425781 -0.1875 1.8125 -0.1875 C 2.101562 -0.1875 2.332031 -0.253906 2.5 -0.390625 C 2.664062 -0.535156 2.75 -0.71875 2.75 -0.9375 C 2.75 -1.0625 2.707031 -1.171875 2.625 -1.265625 C 2.539062 -1.367188 2.40625 -1.484375 2.21875 -1.609375 L 1.0625 -2.359375 C 0.632812 -2.648438 0.421875 -3.003906 0.421875 -3.421875 C 0.421875 -3.460938 0.425781 -3.503906 0.4375 -3.546875 C 0.46875 -3.898438 0.601562 -4.179688 0.84375 -4.390625 C 1.09375 -4.597656 1.421875 -4.703125 1.828125 -4.703125 C 2.066406 -4.703125 2.363281 -4.679688 2.71875 -4.640625 L 3.140625 -4.640625 L 3.046875 -3.671875 L 2.984375 -3.671875 C 2.984375 -3.898438 2.898438 -4.082031 2.734375 -4.21875 C 2.566406 -4.363281 2.34375 -4.4375 2.0625 -4.4375 C 1.71875 -4.4375 1.46875 -4.328125 1.3125 -4.109375 C 1.226562 -4.015625 1.1875 -3.914062 1.1875 -3.8125 C 1.1875 -3.707031 1.207031 -3.617188 1.25 -3.546875 C 1.3125 -3.429688 1.445312 -3.3125 1.65625 -3.1875 L 2.921875 -2.359375 C 3.316406 -2.109375 3.515625 -1.773438 3.515625 -1.359375 C 3.515625 -0.890625 3.351562 -0.53125 3.03125 -0.28125 C 2.707031 -0.03125 2.285156 0.09375 1.765625 0.09375 C 1.460938 0.09375 1.179688 0.0546875 0.921875 -0.015625 C 0.671875 -0.0859375 0.488281 -0.1875 0.375 -0.3125 C 0.34375 -0.394531 0.328125 -0.492188 0.328125 -0.609375 Z M 0.328125 -0.609375 "/></g></g></g></svg>